%TF.GenerationSoftware,KiCad,Pcbnew,9.0.4*%
%TF.CreationDate,2025-10-20T14:40:48-03:00*%
%TF.ProjectId,placa-edu-uno,706c6163-612d-4656-9475-2d756e6f2e6b,rev?*%
%TF.SameCoordinates,Original*%
%TF.FileFunction,Copper,L1,Top*%
%TF.FilePolarity,Positive*%
%FSLAX46Y46*%
G04 Gerber Fmt 4.6, Leading zero omitted, Abs format (unit mm)*
G04 Created by KiCad (PCBNEW 9.0.4) date 2025-10-20 14:40:48*
%MOMM*%
%LPD*%
G01*
G04 APERTURE LIST*
G04 Aperture macros list*
%AMRoundRect*
0 Rectangle with rounded corners*
0 $1 Rounding radius*
0 $2 $3 $4 $5 $6 $7 $8 $9 X,Y pos of 4 corners*
0 Add a 4 corners polygon primitive as box body*
4,1,4,$2,$3,$4,$5,$6,$7,$8,$9,$2,$3,0*
0 Add four circle primitives for the rounded corners*
1,1,$1+$1,$2,$3*
1,1,$1+$1,$4,$5*
1,1,$1+$1,$6,$7*
1,1,$1+$1,$8,$9*
0 Add four rect primitives between the rounded corners*
20,1,$1+$1,$2,$3,$4,$5,0*
20,1,$1+$1,$4,$5,$6,$7,0*
20,1,$1+$1,$6,$7,$8,$9,0*
20,1,$1+$1,$8,$9,$2,$3,0*%
%AMFreePoly0*
4,1,296,0.076512,1.482500,0.076536,1.482499,0.118536,1.479499,0.118572,1.479495,0.159586,1.473493,0.199586,1.466493,0.199621,1.466485,0.239644,1.456479,0.279644,1.444479,0.318658,1.431474,0.318694,1.431461,0.356714,1.415452,0.394714,1.397452,0.394743,1.397437,0.430757,1.377429,0.465757,1.356429,0.465788,1.356408,0.499788,1.332408,0.499802,1.332399,0.532802,1.307399,
0.564841,1.280366,0.594841,1.252366,0.594866,1.252341,0.622866,1.222341,0.649899,1.190302,0.674899,1.157302,0.674908,1.157288,0.698908,1.123288,0.698929,1.123257,0.719937,1.088243,0.739937,1.052243,0.739952,1.052214,0.757961,1.014194,0.773961,0.976194,0.773974,0.976158,0.786979,0.937144,0.798979,0.897144,0.808985,0.857121,0.808993,0.857086,0.815995,0.817072,
0.821995,0.776072,0.821999,0.776036,0.824999,0.734036,0.826000,0.693012,0.826000,0.662988,0.824999,0.620965,0.821999,0.577965,0.821995,0.577929,0.815991,0.535904,0.807991,0.494904,0.797979,0.452856,0.785972,0.412835,0.771963,0.372810,0.755963,0.333810,0.737954,0.294790,0.737935,0.294753,0.716927,0.257739,0.694927,0.221739,0.670897,0.186696,0.644897,0.152696,
0.617865,0.120658,0.588865,0.089658,0.588842,0.089635,0.557842,0.060635,0.525804,0.033603,0.491804,0.007603,0.456761,-0.016427,0.420747,-0.038435,0.383747,-0.059435,0.383710,-0.059454,0.344690,-0.077463,0.305690,-0.093463,0.265644,-0.107479,0.225644,-0.119479,0.183596,-0.129491,0.142596,-0.137491,0.100571,-0.143495,0.100535,-0.143499,0.057512,-0.146500,0.015512,-0.147500,
0.005488,-0.147500,-0.036536,-0.146499,-0.078536,-0.143499,-0.078572,-0.143495,-0.119584,-0.137493,-0.160584,-0.130493,-0.160618,-0.130486,-0.201644,-0.120479,-0.241665,-0.108472,-0.281665,-0.094472,-0.281694,-0.094461,-0.319714,-0.078452,-0.357738,-0.060440,-0.394761,-0.040427,-0.430761,-0.018427,-0.464788,0.005592,-0.464802,0.005601,-0.497802,0.030601,-0.529842,0.057635,-0.560842,0.086635,
-0.560865,0.086658,-0.589865,0.117658,-0.616899,0.149698,-0.641899,0.182698,-0.641908,0.182712,-0.665927,0.216739,-0.687927,0.252739,-0.707940,0.289762,-0.725961,0.327806,-0.741961,0.365806,-0.741972,0.365835,-0.755979,0.405856,-0.767979,0.445856,-0.777986,0.486882,-0.777993,0.486916,-0.784995,0.527928,-0.790995,0.568928,-0.790999,0.568964,-0.793999,0.610964,-0.795000,0.652988,
-0.795000,0.683012,-0.793999,0.725036,-0.790999,0.767036,-0.790995,0.767072,-0.784993,0.808084,-0.777993,0.849084,-0.777986,0.849118,-0.767979,0.890144,-0.755972,0.930165,-0.741972,0.970165,-0.741961,0.970194,-0.725952,1.008214,-0.707940,1.046238,-0.687927,1.083261,-0.665927,1.119261,-0.641908,1.153288,-0.641899,1.153302,-0.616899,1.186302,-0.589865,1.218342,-0.560865,1.249342,
-0.560842,1.249365,-0.529842,1.278365,-0.497802,1.305399,-0.464802,1.330399,-0.464788,1.330408,-0.430761,1.354427,-0.394761,1.376427,-0.357738,1.396440,-0.319694,1.414461,-0.281694,1.430461,-0.281665,1.430472,-0.241644,1.444479,-0.201644,1.456479,-0.160618,1.466486,-0.160584,1.466493,-0.119572,1.473495,-0.078572,1.479495,-0.078536,1.479499,-0.036536,1.482499,0.005488,1.483500,
0.005845,1.483362,0.006000,1.483012,0.006000,1.183000,0.005854,1.182646,0.005519,1.182500,-0.020469,1.181500,-0.046457,1.179501,-0.072428,1.176504,-0.098395,1.171511,-0.123370,1.165517,-0.149348,1.158522,-0.173308,1.149538,-0.197300,1.139541,-0.221278,1.128551,-0.244239,1.115572,-0.266232,1.101578,-0.288210,1.087591,-0.309187,1.071609,-0.329166,1.054627,-0.348146,1.036646,
-0.366127,1.017666,-0.383109,0.997687,-0.399091,0.976710,-0.413078,0.954732,-0.427072,0.932739,-0.440051,0.909778,-0.451045,0.885792,-0.461038,0.861808,-0.470022,0.837848,-0.477017,0.811870,-0.483011,0.786895,-0.488004,0.760928,-0.491001,0.734962,-0.493001,0.708962,-0.494000,0.682981,-0.494000,0.663019,-0.493001,0.636038,-0.491001,0.610038,-0.488005,0.583073,-0.483009,0.557098,
-0.477018,0.531135,-0.469022,0.505147,-0.460038,0.480192,-0.450041,0.456200,-0.438049,0.431216,-0.426066,0.408250,-0.412081,0.385273,-0.397101,0.363303,-0.380111,0.342315,-0.363119,0.322324,-0.345146,0.302354,-0.325176,0.284381,-0.305185,0.267389,-0.284196,0.250398,-0.262226,0.235418,-0.239250,0.221433,-0.216284,0.209451,-0.191299,0.197458,-0.167308,0.187462,-0.167308,0.187461,
-0.142353,0.178478,-0.116365,0.170481,-0.090402,0.164490,-0.064426,0.159494,-0.037462,0.156498,-0.037462,0.156499,-0.011469,0.154499,0.015519,0.153500,0.025481,0.153500,0.051469,0.154499,0.077457,0.156498,0.103428,0.159495,0.129395,0.164488,0.154370,0.170482,0.154370,0.170483,0.180348,0.177477,0.204308,0.186462,0.228300,0.196458,0.252278,0.207448,0.275239,0.220427,
0.319210,0.248408,0.340187,0.264390,0.360166,0.281372,0.379146,0.299353,0.397127,0.318333,0.414109,0.338312,0.430091,0.359289,0.458072,0.403260,0.471051,0.426221,0.482045,0.450208,0.492038,0.474192,0.501022,0.498151,0.508017,0.524130,0.514011,0.549104,0.519004,0.575071,0.522001,0.601043,0.524001,0.627038,0.525000,0.653019,0.525000,0.682981,0.524001,0.708962,
0.522001,0.734962,0.519004,0.760928,0.514011,0.786895,0.508017,0.811870,0.501022,0.837848,0.492038,0.861808,0.482045,0.885792,0.471051,0.909778,0.458072,0.932739,0.444078,0.954732,0.430091,0.976710,0.414109,0.997687,0.397127,1.017666,0.379146,1.036646,0.360166,1.054627,0.340187,1.071609,0.319210,1.087591,0.297232,1.101578,0.275239,1.115572,0.252278,1.128551,
0.228300,1.139541,0.204308,1.149538,0.180348,1.158522,0.154370,1.165517,0.129395,1.171511,0.103428,1.176504,0.077457,1.179501,0.051469,1.181500,0.025481,1.182500,0.025133,1.182660,0.025000,1.183000,0.025000,1.483000,0.025146,1.483354,0.025500,1.483500,0.035512,1.483500,0.076512,1.482500,0.076512,1.482500,$1*%
G04 Aperture macros list end*
%TA.AperFunction,SMDPad,CuDef*%
%ADD10RoundRect,0.067500X-0.202500X-0.232500X0.202500X-0.232500X0.202500X0.232500X-0.202500X0.232500X0*%
%TD*%
%TA.AperFunction,SMDPad,CuDef*%
%ADD11RoundRect,0.033750X-0.386250X-0.101250X0.386250X-0.101250X0.386250X0.101250X-0.386250X0.101250X0*%
%TD*%
%TA.AperFunction,SMDPad,CuDef*%
%ADD12R,1.100000X1.100000*%
%TD*%
%TA.AperFunction,SMDPad,CuDef*%
%ADD13RoundRect,0.033750X-0.101250X-0.386250X0.101250X-0.386250X0.101250X0.386250X-0.101250X0.386250X0*%
%TD*%
%TA.AperFunction,ComponentPad*%
%ADD14R,1.370000X1.370000*%
%TD*%
%TA.AperFunction,ComponentPad*%
%ADD15C,1.370000*%
%TD*%
%TA.AperFunction,SMDPad,CuDef*%
%ADD16R,0.540000X0.600000*%
%TD*%
%TA.AperFunction,SMDPad,CuDef*%
%ADD17RoundRect,0.108750X0.326250X0.356250X-0.326250X0.356250X-0.326250X-0.356250X0.326250X-0.356250X0*%
%TD*%
%TA.AperFunction,SMDPad,CuDef*%
%ADD18RoundRect,0.150000X-0.450000X-0.760000X0.450000X-0.760000X0.450000X0.760000X-0.450000X0.760000X0*%
%TD*%
%TA.AperFunction,SMDPad,CuDef*%
%ADD19R,1.100000X1.000000*%
%TD*%
%TA.AperFunction,SMDPad,CuDef*%
%ADD20RoundRect,0.108750X-0.326250X-0.356250X0.326250X-0.356250X0.326250X0.356250X-0.326250X0.356250X0*%
%TD*%
%TA.AperFunction,SMDPad,CuDef*%
%ADD21RoundRect,0.171250X-0.513750X-1.188750X0.513750X-1.188750X0.513750X1.188750X-0.513750X1.188750X0*%
%TD*%
%TA.AperFunction,SMDPad,CuDef*%
%ADD22RoundRect,0.150000X0.450000X0.760000X-0.450000X0.760000X-0.450000X-0.760000X0.450000X-0.760000X0*%
%TD*%
%TA.AperFunction,SMDPad,CuDef*%
%ADD23R,0.930000X0.870000*%
%TD*%
%TA.AperFunction,SMDPad,CuDef*%
%ADD24R,4.800000X3.800000*%
%TD*%
%TA.AperFunction,SMDPad,CuDef*%
%ADD25R,0.522000X0.600000*%
%TD*%
%TA.AperFunction,SMDPad,CuDef*%
%ADD26FreePoly0,270.000000*%
%TD*%
%TA.AperFunction,SMDPad,CuDef*%
%ADD27R,0.600000X0.560000*%
%TD*%
%TA.AperFunction,SMDPad,CuDef*%
%ADD28RoundRect,0.135000X-0.405000X-0.575000X0.405000X-0.575000X0.405000X0.575000X-0.405000X0.575000X0*%
%TD*%
%TA.AperFunction,ComponentPad*%
%ADD29R,0.850000X0.850000*%
%TD*%
%TA.AperFunction,ComponentPad*%
%ADD30C,0.850000*%
%TD*%
%TA.AperFunction,ComponentPad*%
%ADD31R,1.200000X1.200000*%
%TD*%
%TA.AperFunction,ComponentPad*%
%ADD32C,1.200000*%
%TD*%
%TA.AperFunction,SMDPad,CuDef*%
%ADD33R,1.420000X1.000000*%
%TD*%
%TA.AperFunction,SMDPad,CuDef*%
%ADD34R,1.000000X0.970000*%
%TD*%
%TA.AperFunction,SMDPad,CuDef*%
%ADD35RoundRect,0.031250X-0.093750X0.343750X-0.093750X-0.343750X0.093750X-0.343750X0.093750X0.343750X0*%
%TD*%
%TA.AperFunction,SMDPad,CuDef*%
%ADD36RoundRect,0.031250X-0.268750X0.093750X-0.268750X-0.093750X0.268750X-0.093750X0.268750X0.093750X0*%
%TD*%
%TA.AperFunction,SMDPad,CuDef*%
%ADD37R,4.600000X2.200000*%
%TD*%
%TA.AperFunction,ComponentPad*%
%ADD38C,0.400000*%
%TD*%
%TA.AperFunction,SMDPad,CuDef*%
%ADD39R,0.870000X0.930000*%
%TD*%
%TA.AperFunction,SMDPad,CuDef*%
%ADD40R,1.473200X0.355600*%
%TD*%
%TA.AperFunction,ViaPad*%
%ADD41C,0.600000*%
%TD*%
%TA.AperFunction,Conductor*%
%ADD42C,0.200000*%
%TD*%
%TA.AperFunction,Conductor*%
%ADD43C,0.250000*%
%TD*%
%TA.AperFunction,Conductor*%
%ADD44C,1.000000*%
%TD*%
%TA.AperFunction,Conductor*%
%ADD45C,0.500000*%
%TD*%
G04 APERTURE END LIST*
D10*
%TO.P,C1,2*%
%TO.N,GND*%
X-5664000Y-25664000D03*
%TO.P,C1,1*%
%TO.N,3.3V_RPI*%
X-6528000Y-25664000D03*
%TD*%
D11*
%TO.P,U2,3,GND*%
%TO.N,GND*%
X-7896000Y-21264000D03*
%TO.P,U2,2,GAIN_SLOT*%
X-7896000Y-20764000D03*
D12*
%TO.P,U2,17,EP*%
X-6461000Y-21014000D03*
D11*
%TO.P,U2,11,GND*%
X-5026000Y-20764000D03*
D13*
%TO.P,U2,15,GND*%
X-6711000Y-19579000D03*
D11*
%TO.P,U2,1,DIN*%
%TO.N,GPIO_21_DOUT_PCM*%
X-7896000Y-20264000D03*
%TO.P,U2,4,SD_MODE*%
%TO.N,Net-(U2-SD_MODE)*%
X-7896000Y-21764000D03*
D13*
%TO.P,U2,5,NC*%
%TO.N,unconnected-(U2-NC-Pad5)*%
X-7211000Y-22449000D03*
%TO.P,U2,6,NC*%
%TO.N,unconnected-(U2-NC-Pad6)*%
X-6711000Y-22449000D03*
%TO.P,U2,7,VDD*%
%TO.N,3.3V_RPI*%
X-6211000Y-22449000D03*
%TO.P,U2,8,VDD*%
X-5711000Y-22449000D03*
D11*
%TO.P,U2,9,OUTP*%
%TO.N,Net-(U2-OUTP)*%
X-5026000Y-21764000D03*
%TO.P,U2,10,OUTN*%
%TO.N,Net-(U2-OUTN)*%
X-5026000Y-21264000D03*
%TO.P,U2,12,NC*%
%TO.N,unconnected-(U2-NC-Pad12)*%
X-5026000Y-20264000D03*
D13*
%TO.P,U2,13,NC*%
%TO.N,unconnected-(U2-NC-Pad13)*%
X-5711000Y-19579000D03*
%TO.P,U2,14,LRCLK*%
%TO.N,GPIO_19_FS_PCM*%
X-6211000Y-19579000D03*
%TO.P,U2,16,BCLK*%
%TO.N,GPIO_18_CLK_PCM*%
X-7211000Y-19579000D03*
%TD*%
D14*
%TO.P,J12,01,01*%
%TO.N,Net-(J12-Pad01)*%
X27940000Y-46736000D03*
D15*
%TO.P,J12,02,02*%
%TO.N,5V_Fuente*%
X27940000Y-49276000D03*
%TO.P,J12,03,03*%
%TO.N,GND*%
X27940000Y-51816000D03*
%TD*%
D16*
%TO.P,R7,1*%
%TO.N,/Driver Servos/J6*%
X31344000Y-44196000D03*
%TO.P,R7,2*%
%TO.N,Net-(J13-Pad01)*%
X30480000Y-44196000D03*
%TD*%
D17*
%TO.P,C8,2*%
%TO.N,GND*%
X-3779000Y-48196000D03*
%TO.P,C8,1*%
%TO.N,/Amplificadores/OUT_P2*%
X-2219000Y-48196000D03*
%TD*%
D14*
%TO.P,J15,01,01*%
%TO.N,Net-(J15-Pad01)*%
X35560000Y-46736000D03*
D15*
%TO.P,J15,02,02*%
%TO.N,5V_Fuente*%
X35560000Y-49276000D03*
%TO.P,J15,03,03*%
%TO.N,GND*%
X35560000Y-51816000D03*
%TD*%
D16*
%TO.P,R4,1*%
%TO.N,/Driver Servos/J3*%
X23724000Y-44196000D03*
%TO.P,R4,2*%
%TO.N,Net-(J10-Pad01)*%
X22860000Y-44196000D03*
%TD*%
D18*
%TO.P,C14,1*%
%TO.N,5V_Fuente*%
X75040000Y-43500000D03*
%TO.P,C14,2*%
%TO.N,GND*%
X77960000Y-43500000D03*
%TD*%
D19*
%TO.P,C22,1*%
%TO.N,5V_RPI*%
X76150000Y-13876000D03*
%TO.P,C22,2*%
%TO.N,GND*%
X77850000Y-13876000D03*
%TD*%
D20*
%TO.P,C4,1*%
%TO.N,GND*%
X-3580879Y-23922745D03*
%TO.P,C4,2*%
%TO.N,/Amplificadores/OUT_P1*%
X-2020879Y-23922745D03*
%TD*%
D21*
%TO.P,C20,1*%
%TO.N,5V_RPI*%
X76079000Y-20376000D03*
%TO.P,C20,2*%
%TO.N,GND*%
X78921000Y-20376000D03*
%TD*%
D22*
%TO.P,C9,1*%
%TO.N,GND*%
X55244000Y-41148000D03*
%TO.P,C9,2*%
%TO.N,5V_RPI*%
X52324000Y-41148000D03*
%TD*%
D23*
%TO.P,R10,1*%
%TO.N,GND*%
X50800000Y-46491500D03*
%TO.P,R10,2*%
%TO.N,Net-(U1-~OE)*%
X50800000Y-44931500D03*
%TD*%
D19*
%TO.P,C13,1*%
%TO.N,5V_Fuente*%
X76300000Y-41500000D03*
%TO.P,C13,2*%
%TO.N,GND*%
X78000000Y-41500000D03*
%TD*%
%TO.P,C17,1*%
%TO.N,Net-(C17-Pad1)*%
X78574000Y-33528000D03*
%TO.P,C17,2*%
%TO.N,Net-(U6-CBOOT)*%
X76874000Y-33528000D03*
%TD*%
D16*
%TO.P,R8,1*%
%TO.N,/Driver Servos/J7*%
X33884000Y-44196000D03*
%TO.P,R8,2*%
%TO.N,Net-(J14-Pad01)*%
X33020000Y-44196000D03*
%TD*%
%TO.P,R2,1*%
%TO.N,/Driver Servos/J1*%
X18644000Y-44196000D03*
%TO.P,R2,2*%
%TO.N,Net-(J8-Pad01)*%
X17780000Y-44196000D03*
%TD*%
D24*
%TO.P,L1,1*%
%TO.N,Net-(C17-Pad1)*%
X67564000Y-20614000D03*
%TO.P,L1,2*%
%TO.N,5V_RPI*%
X67564000Y-10714000D03*
%TD*%
D25*
%TO.P,U5,1,WS*%
%TO.N,GPIO_19_FS_PCM*%
X-5546000Y-39232000D03*
%TO.P,U5,2,LR*%
%TO.N,3.3V_RPI*%
X-6368000Y-39232000D03*
D26*
%TO.P,U5,3,GND*%
%TO.N,GND*%
X-8290000Y-40116500D03*
D25*
%TO.P,U5,4,SCK*%
%TO.N,GPIO_18_CLK_PCM*%
X-6368000Y-41032000D03*
%TO.P,U5,5,VDD*%
%TO.N,3.3V_RPI*%
X-5546000Y-41032000D03*
%TO.P,U5,6,SD*%
%TO.N,GPIO_20_DIN_PCM*%
X-5546000Y-40132000D03*
%TD*%
D16*
%TO.P,R3,1*%
%TO.N,/Driver Servos/J2*%
X21184000Y-44216000D03*
%TO.P,R3,2*%
%TO.N,Net-(J9-Pad01)*%
X20320000Y-44216000D03*
%TD*%
D18*
%TO.P,C16,1*%
%TO.N,Net-(U6-VCC)*%
X76040000Y-30376000D03*
%TO.P,C16,2*%
%TO.N,GND*%
X78960000Y-30376000D03*
%TD*%
D21*
%TO.P,C21,1*%
%TO.N,5V_RPI*%
X76079000Y-16876000D03*
%TO.P,C21,2*%
%TO.N,GND*%
X78921000Y-16876000D03*
%TD*%
D14*
%TO.P,J11,01,01*%
%TO.N,Net-(J11-Pad01)*%
X25400000Y-46736000D03*
D15*
%TO.P,J11,02,02*%
%TO.N,5V_Fuente*%
X25400000Y-49276000D03*
%TO.P,J11,03,03*%
%TO.N,GND*%
X25400000Y-51816000D03*
%TD*%
D27*
%TO.P,R13,1*%
%TO.N,3.3V_RPI*%
X-9211000Y-22549000D03*
%TO.P,R13,2*%
%TO.N,Net-(U2-SD_MODE)*%
X-9211000Y-21679000D03*
%TD*%
D28*
%TO.P,C6,2*%
%TO.N,GND*%
X-5294031Y-48222997D03*
%TO.P,C6,1*%
%TO.N,3.3V_RPI*%
X-7084031Y-48222997D03*
%TD*%
D29*
%TO.P,J5,1,Pin_1*%
%TO.N,/Amplificadores/OUT_P2*%
X189000Y-46446000D03*
D30*
%TO.P,J5,2,Pin_2*%
%TO.N,/Amplificadores/OUT_N2*%
X189000Y-45446000D03*
%TD*%
D16*
%TO.P,R1,1*%
%TO.N,/Driver Servos/J0*%
X16104000Y-44246000D03*
%TO.P,R1,2*%
%TO.N,Net-(J7-Pad01)*%
X15240000Y-44246000D03*
%TD*%
D31*
%TO.P,C10,1*%
%TO.N,5V_Fuente*%
X65450000Y-41731500D03*
D32*
%TO.P,C10,2*%
%TO.N,GND*%
X60450000Y-41731500D03*
%TD*%
D33*
%TO.P,R18,1*%
%TO.N,Net-(U6-FB)*%
X71186532Y-36348310D03*
%TO.P,R18,2*%
%TO.N,GND*%
X71186532Y-38218310D03*
%TD*%
D27*
%TO.P,R14,1*%
%TO.N,3.3V_RPI*%
X-9319000Y-46681000D03*
%TO.P,R14,2*%
%TO.N,Net-(U3-SD_MODE)*%
X-9319000Y-45811000D03*
%TD*%
D14*
%TO.P,J10,01,01*%
%TO.N,Net-(J10-Pad01)*%
X22860000Y-46736000D03*
D15*
%TO.P,J10,02,02*%
%TO.N,5V_Fuente*%
X22860000Y-49276000D03*
%TO.P,J10,03,03*%
%TO.N,GND*%
X22860000Y-51816000D03*
%TD*%
D10*
%TO.P,C12,1*%
%TO.N,3.3V_RPI*%
X-3988000Y-41148000D03*
%TO.P,C12,2*%
%TO.N,GND*%
X-3124000Y-41148000D03*
%TD*%
D34*
%TO.P,FL3,1*%
%TO.N,Net-(U3-OUTP)*%
X-3226000Y-46696000D03*
%TO.P,FL3,2*%
%TO.N,/Amplificadores/OUT_P2*%
X-1756000Y-46696000D03*
%TD*%
D16*
%TO.P,R6,1*%
%TO.N,/Driver Servos/J5*%
X28804000Y-44196000D03*
%TO.P,R6,2*%
%TO.N,Net-(J12-Pad01)*%
X27940000Y-44196000D03*
%TD*%
D11*
%TO.P,U3,1,DIN*%
%TO.N,GPIO_21_DOUT_PCM*%
X-8039000Y-44346000D03*
%TO.P,U3,2,GAIN_SLOT*%
%TO.N,GND*%
X-8039000Y-44846000D03*
%TO.P,U3,3,GND*%
X-8039000Y-45346000D03*
%TO.P,U3,4,SD_MODE*%
%TO.N,Net-(U3-SD_MODE)*%
X-8039000Y-45846000D03*
D13*
%TO.P,U3,5,NC*%
%TO.N,unconnected-(U3-NC-Pad5)*%
X-7354000Y-46531000D03*
%TO.P,U3,6,NC*%
%TO.N,unconnected-(U3-NC-Pad6)*%
X-6854000Y-46531000D03*
%TO.P,U3,7,VDD*%
%TO.N,3.3V_RPI*%
X-6354000Y-46531000D03*
%TO.P,U3,8,VDD*%
X-5854000Y-46531000D03*
D11*
%TO.P,U3,9,OUTP*%
%TO.N,Net-(U3-OUTP)*%
X-5169000Y-45846000D03*
%TO.P,U3,10,OUTN*%
%TO.N,Net-(U3-OUTN)*%
X-5169000Y-45346000D03*
%TO.P,U3,11,GND*%
%TO.N,GND*%
X-5169000Y-44846000D03*
%TO.P,U3,12,NC*%
%TO.N,unconnected-(U3-NC-Pad12)*%
X-5169000Y-44346000D03*
D13*
%TO.P,U3,13,NC*%
%TO.N,unconnected-(U3-NC-Pad13)*%
X-5854000Y-43661000D03*
%TO.P,U3,14,LRCLK*%
%TO.N,GPIO_19_FS_PCM*%
X-6354000Y-43661000D03*
%TO.P,U3,15,GND*%
%TO.N,GND*%
X-6854000Y-43661000D03*
%TO.P,U3,16,BCLK*%
%TO.N,GPIO_18_CLK_PCM*%
X-7354000Y-43661000D03*
D12*
%TO.P,U3,17,EP*%
%TO.N,GND*%
X-6604000Y-45096000D03*
%TD*%
D34*
%TO.P,FL1,1*%
%TO.N,Net-(U2-OUTP)*%
X-3275000Y-22370188D03*
%TO.P,FL1,2*%
%TO.N,/Amplificadores/OUT_P1*%
X-1805000Y-22370188D03*
%TD*%
D15*
%TO.P,J1,6,Pin_6*%
%TO.N,GND*%
X13510000Y-2250000D03*
D14*
%TO.P,J1,1,Pin_1*%
%TO.N,3.3V_RPI*%
X8430000Y-4790000D03*
D15*
%TO.P,J1,2,Pin_2*%
%TO.N,5V_RPI*%
X8430000Y-2250000D03*
%TO.P,J1,3,Pin_3*%
%TO.N,GPIO_2_SDA_I2C*%
X10970000Y-4790000D03*
%TO.P,J1,4,Pin_4*%
%TO.N,5V_RPI*%
X10970000Y-2250000D03*
%TO.P,J1,5,Pin_5*%
%TO.N,GPIO_3_SCL_I2C*%
X13510000Y-4790000D03*
%TO.P,J1,7,Pin_7*%
%TO.N,GPIO_4*%
X16050000Y-4790000D03*
%TO.P,J1,8,Pin_8*%
%TO.N,GPIO_14_TXD_UART*%
X16050000Y-2250000D03*
%TO.P,J1,9,Pin_9*%
%TO.N,GND*%
X18590000Y-4790000D03*
%TO.P,J1,10,Pin_10*%
%TO.N,GPIO_15_RXD_UART*%
X18590000Y-2250000D03*
%TO.P,J1,11,Pin_11*%
%TO.N,GPIO_17*%
X21130000Y-4790000D03*
%TO.P,J1,12,Pin_12*%
%TO.N,GPIO_18_CLK_PCM*%
X21130000Y-2250000D03*
%TO.P,J1,13,Pin_13*%
%TO.N,GPIO_27*%
X23670000Y-4790000D03*
%TO.P,J1,14,Pin_14*%
%TO.N,GND*%
X23670000Y-2250000D03*
%TO.P,J1,15,Pin_15*%
%TO.N,GPIO_22*%
X26210000Y-4790000D03*
%TO.P,J1,16,Pin_16*%
%TO.N,GPIO_23*%
X26210000Y-2250000D03*
%TO.P,J1,17,Pin_17*%
%TO.N,3.3V_RPI*%
X28750000Y-4790000D03*
%TO.P,J1,18,Pin_18*%
%TO.N,GPIO_24*%
X28750000Y-2250000D03*
%TO.P,J1,19,Pin_19*%
%TO.N,GPIO_10_MOSI_SPI*%
X31290000Y-4790000D03*
%TO.P,J1,20,Pin_20*%
%TO.N,GND*%
X31290000Y-2250000D03*
%TO.P,J1,21,Pin_21*%
%TO.N,GPIO_9_MISO_SPI*%
X33830000Y-4790000D03*
%TO.P,J1,22,Pin_22*%
%TO.N,GPIO_25*%
X33830000Y-2250000D03*
%TO.P,J1,23,Pin_23*%
%TO.N,GPIO11_10_SCLK_SPI*%
X36370000Y-4790000D03*
%TO.P,J1,24,Pin_24*%
%TO.N,GPIO_7_CEO_SPI*%
X36370000Y-2250000D03*
%TO.P,J1,25,Pin_25*%
%TO.N,GND*%
X38910000Y-4790000D03*
%TO.P,J1,26,Pin_26*%
%TO.N,GPIO_8_CE1_SPI*%
X38910000Y-2250000D03*
%TO.P,J1,27,Pin_27*%
%TO.N,ID_SD*%
X41450000Y-4790000D03*
%TO.P,J1,28,Pin_28*%
%TO.N,ID_SC*%
X41450000Y-2250000D03*
%TO.P,J1,29,Pin_29*%
%TO.N,GPIO_5*%
X43990000Y-4790000D03*
%TO.P,J1,30,Pin_30*%
%TO.N,GND*%
X43990000Y-2250000D03*
%TO.P,J1,31,Pin_31*%
%TO.N,GPIO_6*%
X46530000Y-4790000D03*
%TO.P,J1,32,Pin_32*%
%TO.N,GPIO_12*%
X46530000Y-2250000D03*
%TO.P,J1,33,Pin_33*%
%TO.N,GPIO_13*%
X49070000Y-4790000D03*
%TO.P,J1,34,Pin_34*%
%TO.N,GND*%
X49070000Y-2250000D03*
%TO.P,J1,35,Pin_35*%
%TO.N,GPIO_19_FS_PCM*%
X51610000Y-4790000D03*
%TO.P,J1,36,Pin_36*%
%TO.N,GPIO_16*%
X51610000Y-2250000D03*
%TO.P,J1,37,Pin_37*%
%TO.N,GPIO_26*%
X54150000Y-4790000D03*
%TO.P,J1,38,Pin_38*%
%TO.N,GPIO_20_DIN_PCM*%
X54150000Y-2250000D03*
%TO.P,J1,39,Pin_39*%
%TO.N,GND*%
X56690000Y-4790000D03*
%TO.P,J1,40,Pin_40*%
%TO.N,GPIO_21_DOUT_PCM*%
X56690000Y-2250000D03*
%TD*%
D14*
%TO.P,J14,01,01*%
%TO.N,Net-(J14-Pad01)*%
X33020000Y-46736000D03*
D15*
%TO.P,J14,02,02*%
%TO.N,5V_Fuente*%
X33020000Y-49276000D03*
%TO.P,J14,03,03*%
%TO.N,GND*%
X33020000Y-51816000D03*
%TD*%
D14*
%TO.P,J13,01,01*%
%TO.N,Net-(J13-Pad01)*%
X30480000Y-46736000D03*
D15*
%TO.P,J13,02,02*%
%TO.N,5V_Fuente*%
X30480000Y-49276000D03*
%TO.P,J13,03,03*%
%TO.N,GND*%
X30480000Y-51816000D03*
%TD*%
D35*
%TO.P,U6,1,SW*%
%TO.N,Net-(C17-Pad1)*%
X79000000Y-35675000D03*
%TO.P,U6,2,SW*%
X78500000Y-35675000D03*
%TO.P,U6,3,SW*%
X78000000Y-35675000D03*
%TO.P,U6,4,SW*%
X77500000Y-35675000D03*
%TO.P,U6,5,SW*%
X77000000Y-35675000D03*
%TO.P,U6,6,CBOOT*%
%TO.N,Net-(U6-CBOOT)*%
X76500000Y-35675000D03*
%TO.P,U6,7,VCC*%
%TO.N,Net-(U6-VCC)*%
X76000000Y-35675000D03*
%TO.P,U6,8,BIAS*%
%TO.N,5V_RPI*%
X75500000Y-35675000D03*
%TO.P,U6,9,RT*%
%TO.N,unconnected-(U6-RT-Pad9)*%
X75000000Y-35675000D03*
%TO.P,U6,10,SS/TRK*%
%TO.N,unconnected-(U6-SS{slash}TRK-Pad10)*%
X74500000Y-35675000D03*
%TO.P,U6,11,FB*%
%TO.N,Net-(U6-FB)*%
X74000000Y-35675000D03*
D36*
%TO.P,U6,12,NC*%
%TO.N,GND*%
X73600000Y-36750000D03*
%TO.P,U6,13,NC*%
X73600000Y-37250000D03*
%TO.P,U6,14,NC*%
X73600000Y-37750000D03*
%TO.P,U6,15,NC*%
X73600000Y-38250000D03*
D35*
%TO.P,U6,16,PGOOD*%
%TO.N,unconnected-(U6-PGOOD-Pad16)*%
X74000000Y-39325000D03*
%TO.P,U6,17,SYNC/MODE*%
%TO.N,GND*%
X74500000Y-39325000D03*
%TO.P,U6,18,EN*%
%TO.N,5V_Fuente*%
X75000000Y-39325000D03*
%TO.P,U6,19,AGND*%
%TO.N,GND*%
X75500000Y-39325000D03*
%TO.P,U6,20,PVIN*%
%TO.N,5V_Fuente*%
X76000000Y-39325000D03*
%TO.P,U6,21,PVIN*%
X76500000Y-39325000D03*
%TO.P,U6,22,PVIN*%
X77000000Y-39325000D03*
%TO.P,U6,23,PGND*%
%TO.N,GND*%
X77500000Y-39325000D03*
%TO.P,U6,24,PGND*%
X78000000Y-39325000D03*
%TO.P,U6,25,PGND*%
X78500000Y-39325000D03*
%TO.P,U6,26,PGND*%
X79000000Y-39325000D03*
D36*
%TO.P,U6,27,NC*%
X79400000Y-38250000D03*
%TO.P,U6,28,NC*%
X79400000Y-37750000D03*
%TO.P,U6,29,NC*%
X79400000Y-37250000D03*
%TO.P,U6,30,NC*%
X79400000Y-36750000D03*
D37*
%TO.P,U6,31,DAP*%
X76500000Y-37500000D03*
D38*
%TO.P,U6,32*%
%TO.N,N/C*%
X78550000Y-37500000D03*
%TO.P,U6,33*%
X77660000Y-36650000D03*
%TO.P,U6,34*%
X77660000Y-37500000D03*
%TO.P,U6,35*%
X77660000Y-38350000D03*
%TO.P,U6,36*%
X76500000Y-36650000D03*
%TO.P,U6,37*%
X76500000Y-37500000D03*
%TO.P,U6,38*%
X76500000Y-38350000D03*
%TO.P,U6,39*%
X75340000Y-36650000D03*
%TO.P,U6,40*%
X75340000Y-37500000D03*
%TO.P,U6,41*%
X75340000Y-38350000D03*
%TO.P,U6,42*%
X74450000Y-37500000D03*
%TD*%
D14*
%TO.P,J6,1,Pin_1*%
%TO.N,3.3V_RPI*%
X14974640Y-8338528D03*
D15*
%TO.P,J6,2,Pin_2*%
%TO.N,5V_RPI*%
X17514640Y-8338528D03*
%TO.P,J6,6,Pin_6*%
%TO.N,GND*%
X20054640Y-8338528D03*
%TO.P,J6,11,Pin_11*%
%TO.N,GPIO_17*%
X22594640Y-8338528D03*
%TO.P,J6,18,Pin_18*%
%TO.N,GPIO_24*%
X25134640Y-8338528D03*
%TO.P,J6,19,Pin_19*%
%TO.N,GPIO_10_MOSI_SPI*%
X27674640Y-8338528D03*
%TO.P,J6,21,Pin_21*%
%TO.N,GPIO_9_MISO_SPI*%
X30214640Y-8338528D03*
%TO.P,J6,22,Pin_22*%
%TO.N,GPIO_25*%
X32754640Y-8338528D03*
%TO.P,J6,23,Pin_23*%
%TO.N,GPIO11_10_SCLK_SPI*%
X35294640Y-8338528D03*
%TO.P,J6,24,Pin_24*%
%TO.N,GPIO_7_CEO_SPI*%
X37834640Y-8338528D03*
%TO.P,J6,26,Pin_26*%
%TO.N,GPIO_8_CE1_SPI*%
X40374640Y-8338528D03*
%TD*%
D14*
%TO.P,J7,01,01*%
%TO.N,Net-(J7-Pad01)*%
X15240000Y-46736000D03*
D15*
%TO.P,J7,02,02*%
%TO.N,5V_Fuente*%
X15240000Y-49276000D03*
%TO.P,J7,03,03*%
%TO.N,GND*%
X15240000Y-51816000D03*
%TD*%
D34*
%TO.P,FL4,1*%
%TO.N,Net-(U3-OUTN)*%
X-3226000Y-45196000D03*
%TO.P,FL4,2*%
%TO.N,/Amplificadores/OUT_N2*%
X-1756000Y-45196000D03*
%TD*%
D25*
%TO.P,U4,1,WS*%
%TO.N,GPIO_19_FS_PCM*%
X-5546000Y-14878000D03*
%TO.P,U4,2,LR*%
%TO.N,GND*%
X-6368000Y-14878000D03*
D26*
%TO.P,U4,3,GND*%
X-8290000Y-15762500D03*
D25*
%TO.P,U4,4,SCK*%
%TO.N,GPIO_18_CLK_PCM*%
X-6368000Y-16678000D03*
%TO.P,U4,5,VDD*%
%TO.N,3.3V_RPI*%
X-5546000Y-16678000D03*
%TO.P,U4,6,SD*%
%TO.N,GPIO_20_DIN_PCM*%
X-5546000Y-15778000D03*
%TD*%
D21*
%TO.P,C18,1*%
%TO.N,5V_RPI*%
X76079000Y-27376000D03*
%TO.P,C18,2*%
%TO.N,GND*%
X78921000Y-27376000D03*
%TD*%
D34*
%TO.P,FL2,1*%
%TO.N,Net-(U2-OUTN)*%
X-3275000Y-20843245D03*
%TO.P,FL2,2*%
%TO.N,/Amplificadores/OUT_N1*%
X-1805000Y-20843245D03*
%TD*%
D23*
%TO.P,R17,1*%
%TO.N,5V_RPI*%
X71066532Y-33387310D03*
%TO.P,R17,2*%
%TO.N,Net-(U6-FB)*%
X71066532Y-34947310D03*
%TD*%
D17*
%TO.P,C3,2*%
%TO.N,GND*%
X-3630028Y-19319903D03*
%TO.P,C3,1*%
%TO.N,/Amplificadores/OUT_N1*%
X-2070028Y-19319903D03*
%TD*%
D21*
%TO.P,C19,1*%
%TO.N,5V_RPI*%
X76079000Y-23876000D03*
%TO.P,C19,2*%
%TO.N,GND*%
X78921000Y-23876000D03*
%TD*%
D23*
%TO.P,R12,1*%
%TO.N,GPIO_2_SDA_I2C*%
X55880000Y-44931500D03*
%TO.P,R12,2*%
%TO.N,5V_RPI*%
X55880000Y-46491500D03*
%TD*%
%TO.P,R16,1*%
%TO.N,GND*%
X45617353Y-7286704D03*
%TO.P,R16,2*%
%TO.N,Net-(J3-Pin_2)*%
X45617353Y-8846704D03*
%TD*%
%TO.P,R11,1*%
%TO.N,5V_RPI*%
X53340000Y-46491500D03*
%TO.P,R11,2*%
%TO.N,GPIO_3_SCL_I2C*%
X53340000Y-44931500D03*
%TD*%
D18*
%TO.P,C15,1*%
%TO.N,5V_Fuente*%
X75040000Y-46000000D03*
%TO.P,C15,2*%
%TO.N,GND*%
X77960000Y-46000000D03*
%TD*%
D16*
%TO.P,R9,1*%
%TO.N,/Driver Servos/J8*%
X36424000Y-44196000D03*
%TO.P,R9,2*%
%TO.N,Net-(J15-Pad01)*%
X35560000Y-44196000D03*
%TD*%
D14*
%TO.P,J9,01,01*%
%TO.N,Net-(J9-Pad01)*%
X20320000Y-46736000D03*
D15*
%TO.P,J9,02,02*%
%TO.N,5V_Fuente*%
X20320000Y-49276000D03*
%TO.P,J9,03,03*%
%TO.N,GND*%
X20320000Y-51816000D03*
%TD*%
D29*
%TO.P,J4,1,Pin_1*%
%TO.N,/Amplificadores/OUT_P1*%
X183574Y-22128384D03*
D30*
%TO.P,J4,2,Pin_2*%
%TO.N,/Amplificadores/OUT_N1*%
X183574Y-21128384D03*
%TD*%
D39*
%TO.P,R15,1*%
%TO.N,GND*%
X-2268000Y-15270000D03*
%TO.P,R15,2*%
%TO.N,GPIO_20_DIN_PCM*%
X-3828000Y-15270000D03*
%TD*%
D10*
%TO.P,C11,2*%
%TO.N,GND*%
X-3124000Y-16794000D03*
%TO.P,C11,1*%
%TO.N,3.3V_RPI*%
X-3988000Y-16794000D03*
%TD*%
D29*
%TO.P,J3,1,Pin_1*%
%TO.N,GPIO_5*%
X43688000Y-7636000D03*
D30*
%TO.P,J3,2,Pin_2*%
%TO.N,Net-(J3-Pin_2)*%
X43688000Y-8636000D03*
%TD*%
D29*
%TO.P,J2,1,Pin_1*%
%TO.N,GND*%
X82350000Y-47800000D03*
D30*
%TO.P,J2,2,Pin_2*%
%TO.N,5V_Fuente*%
X82350000Y-48800000D03*
%TD*%
D17*
%TO.P,C7,1*%
%TO.N,/Amplificadores/OUT_N2*%
X-2219000Y-43696000D03*
%TO.P,C7,2*%
%TO.N,GND*%
X-3779000Y-43696000D03*
%TD*%
D40*
%TO.P,U1,1,A0*%
%TO.N,unconnected-(U1-A0-Pad1)*%
X42341800Y-41757600D03*
%TO.P,U1,2,A1*%
%TO.N,unconnected-(U1-A1-Pad2)*%
X42341800Y-42392600D03*
%TO.P,U1,3,A2*%
%TO.N,unconnected-(U1-A2-Pad3)*%
X42341800Y-43053000D03*
%TO.P,U1,4,A3*%
%TO.N,unconnected-(U1-A3-Pad4)*%
X42341800Y-43688000D03*
%TO.P,U1,5,A4*%
%TO.N,unconnected-(U1-A4-Pad5)*%
X42341800Y-44348400D03*
%TO.P,U1,6,LED0*%
%TO.N,/Driver Servos/J0*%
X42341800Y-45008800D03*
%TO.P,U1,7,LED1*%
%TO.N,/Driver Servos/J1*%
X42341800Y-45643800D03*
%TO.P,U1,8,LED2*%
%TO.N,/Driver Servos/J2*%
X42341800Y-46304200D03*
%TO.P,U1,9,LED3*%
%TO.N,/Driver Servos/J3*%
X42341800Y-46939200D03*
%TO.P,U1,10,LED4*%
%TO.N,/Driver Servos/J4*%
X42341800Y-47599600D03*
%TO.P,U1,11,LED5*%
%TO.N,/Driver Servos/J5*%
X42341800Y-48260000D03*
%TO.P,U1,12,LED6*%
%TO.N,/Driver Servos/J6*%
X42341800Y-48895000D03*
%TO.P,U1,13,LED7*%
%TO.N,/Driver Servos/J7*%
X42341800Y-49555400D03*
%TO.P,U1,14,VSS*%
%TO.N,GND*%
X42341800Y-50190400D03*
%TO.P,U1,15,LED8*%
%TO.N,/Driver Servos/J8*%
X48183800Y-50190400D03*
%TO.P,U1,16,LED9*%
%TO.N,unconnected-(U1-LED9-Pad16)*%
X48183800Y-49555400D03*
%TO.P,U1,17,LED10*%
%TO.N,unconnected-(U1-LED10-Pad17)*%
X48183800Y-48895000D03*
%TO.P,U1,18,LED11*%
%TO.N,unconnected-(U1-LED11-Pad18)*%
X48183800Y-48260000D03*
%TO.P,U1,19,LED12*%
%TO.N,unconnected-(U1-LED12-Pad19)*%
X48183800Y-47599600D03*
%TO.P,U1,20,LED13*%
%TO.N,unconnected-(U1-LED13-Pad20)*%
X48183800Y-46939200D03*
%TO.P,U1,21,LED14*%
%TO.N,unconnected-(U1-LED14-Pad21)*%
X48183800Y-46304200D03*
%TO.P,U1,22,LED15*%
%TO.N,unconnected-(U1-LED15-Pad22)*%
X48183800Y-45643800D03*
%TO.P,U1,23,~OE*%
%TO.N,Net-(U1-~OE)*%
X48183800Y-45008800D03*
%TO.P,U1,24,A5*%
%TO.N,unconnected-(U1-A5-Pad24)*%
X48183800Y-44348400D03*
%TO.P,U1,25,EXTCLK*%
%TO.N,GND*%
X48183800Y-43688000D03*
%TO.P,U1,26,SCL*%
%TO.N,GPIO_3_SCL_I2C*%
X48183800Y-43053000D03*
%TO.P,U1,27,SDA*%
%TO.N,GPIO_2_SDA_I2C*%
X48183800Y-42392600D03*
%TO.P,U1,28,VDD*%
%TO.N,5V_RPI*%
X48183800Y-41757600D03*
%TD*%
D14*
%TO.P,J8,01,01*%
%TO.N,Net-(J8-Pad01)*%
X17780000Y-46736000D03*
D15*
%TO.P,J8,02,02*%
%TO.N,5V_Fuente*%
X17780000Y-49276000D03*
%TO.P,J8,03,03*%
%TO.N,GND*%
X17780000Y-51816000D03*
%TD*%
D16*
%TO.P,R5,1*%
%TO.N,/Driver Servos/J4*%
X26264000Y-44196000D03*
%TO.P,R5,2*%
%TO.N,Net-(J11-Pad01)*%
X25400000Y-44196000D03*
%TD*%
D28*
%TO.P,C2,2*%
%TO.N,GND*%
X-5201000Y-24114000D03*
%TO.P,C2,1*%
%TO.N,3.3V_RPI*%
X-6991000Y-24114000D03*
%TD*%
D10*
%TO.P,C5,2*%
%TO.N,GND*%
X-5872000Y-49773500D03*
%TO.P,C5,1*%
%TO.N,3.3V_RPI*%
X-6736000Y-49773500D03*
%TD*%
D41*
%TO.N,GPIO_18_CLK_PCM*%
X-8128000Y-18288000D03*
%TO.N,GPIO_20_DIN_PCM*%
X-3673000Y-14267981D03*
X-4181000Y-40132000D03*
%TO.N,GPIO_19_FS_PCM*%
X-7112000Y-13863000D03*
X-6499117Y-38217000D03*
%TO.N,GND*%
X37592000Y-51816000D03*
%TO.N,5V_Fuente*%
X42672000Y-53848000D03*
%TO.N,GPIO_19_FS_PCM*%
X-5545812Y-18662688D03*
X-6096000Y-42672000D03*
%TO.N,GPIO_21_DOUT_PCM*%
X-8636000Y-42672000D03*
X-9144000Y-19812000D03*
%TD*%
D42*
%TO.N,GPIO_19_FS_PCM*%
X-7112000Y-13863000D02*
X-5949000Y-13863000D01*
X-5949000Y-13863000D02*
X-5546000Y-14266000D01*
X-5546000Y-14266000D02*
X-5546000Y-14878000D01*
D43*
%TO.N,GPIO_18_CLK_PCM*%
X-7211000Y-18288000D02*
X-7211000Y-19579000D01*
X-7211000Y-18288000D02*
X-8128000Y-18288000D01*
%TO.N,GND*%
X-5187008Y-17420000D02*
X-3450000Y-17420000D01*
X-7103364Y-50399500D02*
X-10666713Y-46836151D01*
X-10666713Y-46836151D02*
X-10666713Y-46544569D01*
X-6368636Y-50399500D02*
X-7103364Y-50399500D01*
X-10666713Y-46544569D02*
X-10666713Y-25749305D01*
X-5872000Y-49902864D02*
X-6368636Y-50399500D01*
X-10668000Y-2540000D02*
X-10668000Y-25938000D01*
X-10668000Y-25938000D02*
X-10530600Y-26075400D01*
X-10530600Y-26075400D02*
X-10160000Y-26446000D01*
X-5872000Y-49773500D02*
X-5872000Y-49902864D01*
X-5872000Y-49773500D02*
X-5872000Y-48800966D01*
X-8791839Y-663839D02*
X-10668000Y-2540000D01*
X-10160000Y-26446000D02*
X-8636000Y-26446000D01*
X-5872000Y-48800966D02*
X-5294031Y-48222997D01*
X6759839Y-663839D02*
X-8791839Y-663839D01*
X-8636000Y-26446000D02*
X-6146000Y-26446000D01*
X-5294031Y-48222997D02*
X-3805997Y-48222997D01*
X7112000Y-1016000D02*
X6759839Y-663839D01*
X-6146000Y-26446000D02*
X-5664000Y-25964000D01*
X-3805997Y-48222997D02*
X-3779000Y-48196000D01*
X7112000Y-2361770D02*
X7112000Y-1016000D01*
X-5664000Y-25964000D02*
X-5664000Y-25664000D01*
X8011230Y-3261000D02*
X7112000Y-2361770D01*
X-5201000Y-25201000D02*
X-5664000Y-25664000D01*
X12499000Y-3261000D02*
X8011230Y-3261000D01*
X-5201000Y-24114000D02*
X-5201000Y-25201000D01*
X13510000Y-2250000D02*
X12499000Y-3261000D01*
X-5201000Y-24114000D02*
X-3772134Y-24114000D01*
X-3772134Y-24114000D02*
X-3580879Y-23922745D01*
X-3580879Y-23922745D02*
X-2789879Y-24713745D01*
X-2789879Y-24713745D02*
X-299745Y-24713745D01*
X-299745Y-24713745D02*
X1016000Y-23398000D01*
X1016000Y-23398000D02*
X1016000Y-18826000D01*
X1016000Y-18826000D02*
X508000Y-18318000D01*
X508000Y-18318000D02*
X-2566870Y-18318000D01*
X-2566870Y-18318000D02*
X-3571374Y-19322504D01*
X-3571374Y-19322504D02*
X-4280000Y-20031130D01*
X-4280000Y-20031130D02*
X-4280000Y-20515198D01*
X-4280000Y-20515198D02*
X-4528802Y-20764000D01*
X-4528802Y-20764000D02*
X-5026000Y-20764000D01*
X-5026000Y-20764000D02*
X-6211000Y-20764000D01*
X-6211000Y-20764000D02*
X-6461000Y-21014000D01*
X-6711000Y-20764000D02*
X-6461000Y-21014000D01*
X-6711000Y-21264000D02*
X-6461000Y-21014000D01*
X-7896000Y-21264000D02*
X-6711000Y-21264000D01*
X-6711000Y-20764000D02*
X-6711000Y-19579000D01*
X-7896000Y-20764000D02*
X-6711000Y-20764000D01*
X-6711000Y-19579000D02*
X-6711000Y-18943992D01*
X-6711000Y-18943992D02*
X-5187008Y-17420000D01*
X-3450000Y-17420000D02*
X-3124000Y-17094000D01*
X-3124000Y-17094000D02*
X-3124000Y-16794000D01*
X-2268000Y-15938000D02*
X-3124000Y-16794000D01*
X-2268000Y-15270000D02*
X-2268000Y-15938000D01*
%TO.N,Net-(C17-Pad1)*%
X77000000Y-35675000D02*
X79000000Y-35675000D01*
D42*
%TO.N,GPIO_20_DIN_PCM*%
X-3828000Y-14422981D02*
X-3673000Y-14267981D01*
X-3828000Y-15270000D02*
X-3828000Y-14422981D01*
X-5546000Y-40132000D02*
X-4181000Y-40132000D01*
D43*
%TO.N,3.3V_RPI*%
X-4572000Y-37592000D02*
X-3556000Y-38608000D01*
X-7620000Y-37592000D02*
X-4572000Y-37592000D01*
X-3556000Y-40586636D02*
X-3556000Y-38608000D01*
X3048000Y-13268000D02*
X3018000Y-13238000D01*
X-3556000Y-25400000D02*
X0Y-25400000D01*
X0Y-25400000D02*
X3048000Y-22352000D01*
X3048000Y-22352000D02*
X3048000Y-13268000D01*
X-3988000Y-41018636D02*
X-3556000Y-40586636D01*
X-3556000Y-38608000D02*
X-3556000Y-25400000D01*
X-3988000Y-41148000D02*
X-3988000Y-41018636D01*
D42*
%TO.N,GPIO_20_DIN_PCM*%
X-4336000Y-15778000D02*
X-3828000Y-15270000D01*
X-5546000Y-15778000D02*
X-4336000Y-15778000D01*
D43*
%TO.N,3.3V_RPI*%
X-3988000Y-16494000D02*
X-3988000Y-16794000D01*
X-3662000Y-16168000D02*
X-3988000Y-16494000D01*
X-3048000Y-15854000D02*
X-3362000Y-16168000D01*
X-3048000Y-13238000D02*
X3018000Y-13238000D01*
X-3048000Y-13238000D02*
X-3048000Y-15854000D01*
X-3362000Y-16168000D02*
X-3662000Y-16168000D01*
X-5546000Y-16678000D02*
X-5233000Y-16678000D01*
D42*
%TO.N,GPIO_19_FS_PCM*%
X-6604000Y-38100000D02*
X-6604000Y-38112117D01*
X-6178000Y-38100000D02*
X-6604000Y-38100000D01*
X-6604000Y-38112117D02*
X-6499117Y-38217000D01*
X-5546000Y-38732000D02*
X-6178000Y-38100000D01*
X-5546000Y-39232000D02*
X-5546000Y-38732000D01*
D43*
%TO.N,3.3V_RPI*%
X-7620000Y-37980000D02*
X-7620000Y-37592000D01*
X-6368000Y-39232000D02*
X-7620000Y-37980000D01*
X-10160000Y-39116000D02*
X-8636000Y-37592000D01*
X-8636000Y-37592000D02*
X-7620000Y-37592000D01*
X-10160000Y-46202000D02*
X-10160000Y-39116000D01*
X-9681000Y-46681000D02*
X-10160000Y-46202000D01*
X-9319000Y-46681000D02*
X-9681000Y-46681000D01*
D44*
%TO.N,5V_RPI*%
X15780112Y-6604000D02*
X17514640Y-8338528D01*
X12700000Y-9144000D02*
X12700000Y-6604000D01*
X13731528Y-10175528D02*
X12700000Y-9144000D01*
X64008000Y-13208000D02*
X60975528Y-10175528D01*
X60975528Y-10175528D02*
X13731528Y-10175528D01*
X64008000Y-14270000D02*
X64008000Y-13208000D01*
X12700000Y-6604000D02*
X15780112Y-6604000D01*
%TO.N,GND*%
X62873690Y-38218310D02*
X71186532Y-38218310D01*
X60450000Y-41731500D02*
X60450000Y-40642000D01*
X60450000Y-40642000D02*
X62873690Y-38218310D01*
D45*
X45617353Y-7286704D02*
X45394000Y-7063351D01*
D43*
X78000000Y-39325000D02*
X78000000Y-39000000D01*
X71186532Y-38218310D02*
X73568310Y-38218310D01*
X76750000Y-37250000D02*
X76500000Y-37500000D01*
X73600000Y-37750000D02*
X76250000Y-37750000D01*
X-6854000Y-44846000D02*
X-6854000Y-43661000D01*
X45212000Y-48306800D02*
X45212000Y-45212000D01*
X-8722100Y-40116500D02*
X-8290000Y-40116500D01*
D44*
X58928000Y-7028000D02*
X56690000Y-4790000D01*
D43*
X-7879467Y-14878000D02*
X-8290000Y-15288533D01*
D44*
X80420000Y-41500000D02*
X78000000Y-41500000D01*
D43*
X45212000Y-45212000D02*
X46736000Y-43688000D01*
X-5169000Y-44846000D02*
X-6354000Y-44846000D01*
X77500000Y-39325000D02*
X77500000Y-38500000D01*
X-3779000Y-44161000D02*
X-3779000Y-43696000D01*
D44*
X77216000Y-48768000D02*
X71628000Y-48768000D01*
D43*
X-3124000Y-41732000D02*
X-3556000Y-42164000D01*
D44*
X60450000Y-41731500D02*
X60450000Y-45214000D01*
D43*
X42341800Y-50190400D02*
X43328400Y-50190400D01*
X78000000Y-39000000D02*
X76500000Y-37500000D01*
D44*
X53848000Y-51816000D02*
X48874600Y-51816000D01*
D43*
X73600000Y-38250000D02*
X73600000Y-36750000D01*
X43328400Y-50190400D02*
X45212000Y-48306800D01*
D44*
X80772000Y-38100000D02*
X80772000Y-41148000D01*
X50800000Y-47522100D02*
X50800000Y-49890600D01*
X58844000Y-7112000D02*
X45792057Y-7112000D01*
D43*
X-3124000Y-41148000D02*
X-3124000Y-41732000D01*
D44*
X50800000Y-49890600D02*
X48874600Y-51816000D01*
X50800000Y-47522100D02*
X50800000Y-46491500D01*
D43*
X79400000Y-38250000D02*
X77250000Y-38250000D01*
X73600000Y-37250000D02*
X76250000Y-37250000D01*
X-8290000Y-40116500D02*
X-8290000Y-40347298D01*
D44*
X80772000Y-45212000D02*
X77216000Y-48768000D01*
D43*
X42341800Y-50190400D02*
X41757600Y-50190400D01*
X79400000Y-38250000D02*
X80622000Y-38250000D01*
X46736000Y-43688000D02*
X48183800Y-43688000D01*
X79400000Y-37250000D02*
X76750000Y-37250000D01*
D44*
X78960000Y-30376000D02*
X78960000Y-16915000D01*
D43*
X-8039000Y-44846000D02*
X-6854000Y-44846000D01*
X-4464000Y-44846000D02*
X-3779000Y-44161000D01*
X75500000Y-39325000D02*
X75500000Y-38500000D01*
X76250000Y-37750000D02*
X76500000Y-37500000D01*
D44*
X58928000Y-7028000D02*
X58844000Y-7112000D01*
D43*
X73600000Y-36750000D02*
X75750000Y-36750000D01*
X76675000Y-37500000D02*
X76500000Y-37500000D01*
D45*
X45394000Y-3654000D02*
X43990000Y-2250000D01*
D43*
X74500000Y-38881406D02*
X75881406Y-37500000D01*
X73568310Y-38218310D02*
X73600000Y-38250000D01*
X79400000Y-38250000D02*
X79400000Y-36750000D01*
X-9205200Y-44846000D02*
X-8705200Y-45346000D01*
X-6854000Y-44846000D02*
X-6604000Y-45096000D01*
X79400000Y-36750000D02*
X77250000Y-36750000D01*
X79000000Y-39325000D02*
X77175000Y-37500000D01*
X-9448800Y-44602400D02*
X-9448800Y-40843200D01*
D44*
X77850000Y-12376000D02*
X72586000Y-7112000D01*
D43*
X75750000Y-36750000D02*
X76500000Y-37500000D01*
X-8290000Y-15288533D02*
X-8290000Y-15762500D01*
D44*
X80772000Y-32188000D02*
X80772000Y-38100000D01*
X78921000Y-14947000D02*
X77850000Y-13876000D01*
X71628000Y-48768000D02*
X71186532Y-48326532D01*
D43*
X78500000Y-39325000D02*
X76675000Y-37500000D01*
D45*
X43990000Y-2250000D02*
X45126000Y-3386000D01*
D44*
X59866500Y-41148000D02*
X60450000Y-41731500D01*
D43*
X-8705200Y-45346000D02*
X-8039000Y-45346000D01*
D45*
X45126000Y-3386000D02*
X47934000Y-3386000D01*
D44*
X55244000Y-41148000D02*
X59866500Y-41148000D01*
D43*
X76750000Y-37750000D02*
X76500000Y-37500000D01*
D44*
X78921000Y-16876000D02*
X78921000Y-14947000D01*
D45*
X20054640Y-8338528D02*
X20054640Y-6254640D01*
D43*
X-8039000Y-44846000D02*
X-9205200Y-44846000D01*
D42*
X-8039000Y-45346000D02*
X-6854000Y-45346000D01*
D43*
X77500000Y-38500000D02*
X76500000Y-37500000D01*
D44*
X77850000Y-13876000D02*
X77850000Y-12376000D01*
D45*
X45394000Y-7063351D02*
X45394000Y-3654000D01*
D44*
X80772000Y-45212000D02*
X79984000Y-46000000D01*
D43*
X74500000Y-39325000D02*
X74500000Y-38881406D01*
D44*
X80772000Y-41148000D02*
X80420000Y-41500000D01*
D43*
X-9448800Y-40843200D02*
X-8722100Y-40116500D01*
X75750000Y-38250000D02*
X76500000Y-37500000D01*
X77175000Y-37500000D02*
X76500000Y-37500000D01*
X-3556000Y-42164000D02*
X-3779000Y-42387000D01*
X76250000Y-37250000D02*
X76500000Y-37500000D01*
D44*
X80772000Y-41148000D02*
X80772000Y-43180000D01*
D43*
X75881406Y-37500000D02*
X76500000Y-37500000D01*
D45*
X20054640Y-6254640D02*
X18590000Y-4790000D01*
D44*
X78960000Y-30376000D02*
X80772000Y-32188000D01*
D43*
X-6368000Y-14878000D02*
X-7879467Y-14878000D01*
X-9205200Y-44846000D02*
X-9448800Y-44602400D01*
X73600000Y-38250000D02*
X75750000Y-38250000D01*
D44*
X58928000Y-7112000D02*
X58928000Y-7028000D01*
X79984000Y-46000000D02*
X77960000Y-46000000D01*
D43*
X80622000Y-38250000D02*
X80772000Y-38100000D01*
D44*
X48874600Y-51816000D02*
X37592000Y-51816000D01*
X60450000Y-45214000D02*
X53848000Y-51816000D01*
X78960000Y-16915000D02*
X78921000Y-16876000D01*
X80772000Y-43180000D02*
X80772000Y-45212000D01*
X71186532Y-48326532D02*
X71186532Y-38218310D01*
X45792057Y-7112000D02*
X45617353Y-7286704D01*
D43*
X-3779000Y-42387000D02*
X-3779000Y-43696000D01*
D42*
X-6854000Y-45346000D02*
X-6604000Y-45096000D01*
D44*
X72586000Y-7112000D02*
X58928000Y-7112000D01*
X80452000Y-43500000D02*
X77960000Y-43500000D01*
D43*
X50800000Y-46491500D02*
X50800000Y-46772100D01*
X-6354000Y-44846000D02*
X-6604000Y-45096000D01*
X77250000Y-38250000D02*
X76500000Y-37500000D01*
D45*
X47934000Y-3386000D02*
X49070000Y-2250000D01*
D44*
X80772000Y-43180000D02*
X80452000Y-43500000D01*
D43*
X-5169000Y-44846000D02*
X-4464000Y-44846000D01*
X75500000Y-38500000D02*
X76500000Y-37500000D01*
X77250000Y-36750000D02*
X76500000Y-37500000D01*
X79400000Y-37750000D02*
X76750000Y-37750000D01*
%TO.N,3.3V_RPI*%
X-9211000Y-22549000D02*
X-9573000Y-22549000D01*
X3018000Y-13238000D02*
X6096000Y-10160000D01*
X-3348000Y-13238000D02*
X-3048000Y-13238000D01*
X-8556000Y-22549000D02*
X-6991000Y-24114000D01*
X-6528000Y-24577000D02*
X-6991000Y-24114000D01*
X28750000Y-4790000D02*
X28750000Y-5833398D01*
X26543000Y-8040398D02*
X26543000Y-8359938D01*
X-9573000Y-22549000D02*
X-9837000Y-22285000D01*
X-4104000Y-16678000D02*
X-3988000Y-16794000D01*
X28750000Y-5833398D02*
X26543000Y-8040398D01*
X-6211000Y-23334000D02*
X-6211000Y-22449000D01*
X-7084031Y-48222997D02*
X-6354000Y-47492966D01*
X-7777003Y-48222997D02*
X-9319000Y-46681000D01*
X-9211000Y-22549000D02*
X-8556000Y-22549000D01*
X6604000Y-9652000D02*
X6604000Y-5588000D01*
X6096000Y-10160000D02*
X6604000Y-9652000D01*
X-5546000Y-16678000D02*
X-4104000Y-16678000D01*
X-5711000Y-22449000D02*
X-6211000Y-22449000D01*
X-7084031Y-48222997D02*
X-7777003Y-48222997D01*
X-4104000Y-41032000D02*
X-3988000Y-41148000D01*
X7402000Y-4790000D02*
X8430000Y-4790000D01*
X-9837000Y-22285000D02*
X-9837000Y-13931000D01*
X25553410Y-9349528D02*
X15985640Y-9349528D01*
X-6736000Y-48571028D02*
X-7084031Y-48222997D01*
X-9837000Y-13931000D02*
X-9144000Y-13238000D01*
X-6354000Y-47492966D02*
X-6354000Y-46531000D01*
X-9144000Y-13238000D02*
X-3348000Y-13238000D01*
X-5854000Y-46992966D02*
X-5854000Y-46531000D01*
X26543000Y-8359938D02*
X25553410Y-9349528D01*
X-6991000Y-24114000D02*
X-7320000Y-24114000D01*
X-6528000Y-25664000D02*
X-6528000Y-24577000D01*
X-6991000Y-24114000D02*
X-6211000Y-23334000D01*
X-6354000Y-47492966D02*
X-5854000Y-46992966D01*
X6604000Y-5588000D02*
X7402000Y-4790000D01*
X-5546000Y-41032000D02*
X-4104000Y-41032000D01*
X15985640Y-9349528D02*
X14974640Y-8338528D01*
X-5716000Y-22454000D02*
X-5711000Y-22449000D01*
X-6736000Y-49773500D02*
X-6736000Y-48571028D01*
D44*
%TO.N,5V_Fuente*%
X76500000Y-41300000D02*
X76500000Y-39325000D01*
X76300000Y-41500000D02*
X76500000Y-41300000D01*
X42672000Y-53848000D02*
X54356000Y-53848000D01*
X65450000Y-42754000D02*
X65450000Y-41731500D01*
D43*
X75000000Y-39325000D02*
X75000000Y-40200000D01*
D44*
X75040000Y-46000000D02*
X75040000Y-43500000D01*
X75040000Y-43500000D02*
X75040000Y-42760000D01*
X54356000Y-53848000D02*
X65450000Y-42754000D01*
D43*
X75000000Y-40200000D02*
X76300000Y-41500000D01*
D44*
X75040000Y-42760000D02*
X76300000Y-41500000D01*
D43*
%TO.N,5V_RPI*%
X54864000Y-43180000D02*
X52832000Y-41148000D01*
X53340000Y-46491500D02*
X55880000Y-46491500D01*
D44*
X64148690Y-33387310D02*
X64008000Y-33528000D01*
D45*
X16419166Y-1114000D02*
X9566000Y-1114000D01*
D44*
X53935000Y-39537000D02*
X57999000Y-39537000D01*
D43*
X55880000Y-46491500D02*
X56671000Y-45700500D01*
D45*
X9566000Y-1114000D02*
X8430000Y-2250000D01*
D43*
X52832000Y-41148000D02*
X52324000Y-41148000D01*
X56671000Y-44191000D02*
X55660000Y-43180000D01*
X55660000Y-43180000D02*
X54864000Y-43180000D01*
D44*
X67564000Y-10714000D02*
X64008000Y-14270000D01*
X64008000Y-33528000D02*
X64008000Y-14270000D01*
D43*
X56671000Y-45700500D02*
X56671000Y-44191000D01*
D44*
X57999000Y-39537000D02*
X64008000Y-33528000D01*
X52324000Y-41148000D02*
X53935000Y-39537000D01*
X76079000Y-13947000D02*
X76150000Y-13876000D01*
D45*
X16764072Y-769094D02*
X16419166Y-1114000D01*
D44*
X71066532Y-33387310D02*
X64148690Y-33387310D01*
X76079000Y-16876000D02*
X76079000Y-13947000D01*
X75756000Y-14270000D02*
X76150000Y-13876000D01*
X76079000Y-16876000D02*
X76079000Y-27376000D01*
D45*
X17454000Y-1459022D02*
X16764072Y-769094D01*
D43*
X52324000Y-41148000D02*
X51714400Y-41757600D01*
D45*
X17514640Y-8338528D02*
X17454000Y-8277888D01*
X17454000Y-8277888D02*
X17454000Y-1459022D01*
D43*
X51714400Y-41757600D02*
X48183800Y-41757600D01*
%TO.N,/Amplificadores/OUT_N1*%
X-2011374Y-19322504D02*
X-2011374Y-20636871D01*
X-1805000Y-20843245D02*
X-101565Y-20843245D01*
X-101565Y-20843245D02*
X183574Y-21128384D01*
X-2011374Y-20636871D02*
X-1805000Y-20843245D01*
%TO.N,/Amplificadores/OUT_P1*%
X-70042Y-22382000D02*
X183574Y-22128384D01*
X-1805000Y-22382000D02*
X-70042Y-22382000D01*
X-2020879Y-23922745D02*
X-2020879Y-22597879D01*
X-2020879Y-22597879D02*
X-1805000Y-22382000D01*
%TO.N,Net-(U6-CBOOT)*%
X76500000Y-35675000D02*
X76500000Y-33902000D01*
X76500000Y-33902000D02*
X76874000Y-33528000D01*
%TO.N,Net-(U2-OUTP)*%
X-5026000Y-21764000D02*
X-3893000Y-21764000D01*
X-3893000Y-21764000D02*
X-3275000Y-22382000D01*
%TO.N,Net-(U2-OUTN)*%
X-3275000Y-20843245D02*
X-3695755Y-21264000D01*
X-3695755Y-21264000D02*
X-5026000Y-21264000D01*
%TO.N,Net-(U3-OUTP)*%
X-4622802Y-45797000D02*
X-4632802Y-45807000D01*
X-4632802Y-45807000D02*
X-5130000Y-45807000D01*
X-4064000Y-45858000D02*
X-4064000Y-45797000D01*
X-4064000Y-45797000D02*
X-4622802Y-45797000D01*
X-5130000Y-45807000D02*
X-5169000Y-45846000D01*
X-3226000Y-46696000D02*
X-4064000Y-45858000D01*
%TO.N,Net-(U3-OUTN)*%
X-3226000Y-45196000D02*
X-3376000Y-45346000D01*
X-3376000Y-45346000D02*
X-5169000Y-45346000D01*
D45*
%TO.N,GPIO_5*%
X43688000Y-5092000D02*
X43990000Y-4790000D01*
X43688000Y-7636000D02*
X43688000Y-5092000D01*
D43*
%TO.N,GPIO_25*%
X32754640Y-8338528D02*
X35052000Y-6041168D01*
X35052000Y-6041168D02*
X35052000Y-3472000D01*
X35052000Y-3472000D02*
X33830000Y-2250000D01*
%TO.N,GPIO_10_MOSI_SPI*%
X31223168Y-4790000D02*
X31290000Y-4790000D01*
X27674640Y-8338528D02*
X31223168Y-4790000D01*
%TO.N,GPIO_7_CEO_SPI*%
X37834640Y-3714640D02*
X36370000Y-2250000D01*
X37834640Y-8338528D02*
X37834640Y-3714640D01*
%TO.N,GPIO_19_FS_PCM*%
X-6211000Y-19081802D02*
X-6211000Y-19579000D01*
D42*
X-6354000Y-43661000D02*
X-6354000Y-42930000D01*
D43*
X-5791886Y-18662688D02*
X-5545812Y-18662688D01*
X-6211000Y-19081802D02*
X-5791886Y-18662688D01*
D42*
X-6354000Y-42930000D02*
X-6096000Y-42672000D01*
D43*
%TO.N,GPIO_24*%
X25134640Y-8338528D02*
X27221000Y-6252168D01*
X27221000Y-6252168D02*
X27221000Y-3779000D01*
X27221000Y-3779000D02*
X28750000Y-2250000D01*
%TO.N,GPIO_8_CE1_SPI*%
X40374640Y-8338528D02*
X40374640Y-3714640D01*
X40374640Y-3714640D02*
X38910000Y-2250000D01*
%TO.N,GPIO_3_SCL_I2C*%
X48183800Y-43053000D02*
X47244000Y-43053000D01*
X51461500Y-43053000D02*
X48183800Y-43053000D01*
X47244000Y-43053000D02*
X43377000Y-39186000D01*
X9441000Y-5799000D02*
X9779000Y-5461000D01*
X9439000Y-5801000D02*
X9441000Y-5801000D01*
X53340000Y-44931500D02*
X51461500Y-43053000D01*
X9778885Y-4191115D02*
X10191000Y-3779000D01*
X7055000Y-8185000D02*
X9439000Y-5801000D01*
X9441000Y-5801000D02*
X9441000Y-5799000D01*
X9779000Y-5461000D02*
X9779000Y-4191230D01*
X12499000Y-3779000D02*
X13510000Y-4790000D01*
X7055000Y-9838810D02*
X7055000Y-8185000D01*
X5150000Y-39186000D02*
X4064000Y-38100000D01*
X43377000Y-39186000D02*
X5150000Y-39186000D01*
X4064000Y-12829810D02*
X7055000Y-9838810D01*
X10191000Y-3779000D02*
X12499000Y-3779000D01*
X4064000Y-38100000D02*
X4064000Y-12829810D01*
X9779000Y-4191230D02*
X9778885Y-4191115D01*
%TO.N,GPIO_17*%
X22594640Y-6254640D02*
X21130000Y-4790000D01*
X22594640Y-8338528D02*
X22594640Y-6254640D01*
%TO.N,GPIO_2_SDA_I2C*%
X10230000Y-5647810D02*
X9892000Y-5985810D01*
X43594800Y-38735000D02*
X47252400Y-42392600D01*
X5336810Y-38735000D02*
X43594800Y-38735000D01*
X10230000Y-5010000D02*
X10230000Y-5647810D01*
X10450000Y-4790000D02*
X10230000Y-5010000D01*
X9892000Y-5987810D02*
X9627810Y-6252000D01*
X9627810Y-6252000D02*
X9625810Y-6252000D01*
X47252400Y-42392600D02*
X48183800Y-42392600D01*
X4572000Y-37970190D02*
X5336810Y-38735000D01*
X53341100Y-42392600D02*
X48183800Y-42392600D01*
X10970000Y-4790000D02*
X10450000Y-4790000D01*
X9625810Y-6252000D02*
X7506000Y-8371810D01*
X55880000Y-44931500D02*
X53341100Y-42392600D01*
X9892000Y-5985810D02*
X9892000Y-5987810D01*
X7506000Y-10025620D02*
X4572000Y-12959620D01*
X7506000Y-8371810D02*
X7506000Y-10025620D01*
X4572000Y-12959620D02*
X4572000Y-37970190D01*
%TO.N,GPIO11_10_SCLK_SPI*%
X35294640Y-8338528D02*
X36370000Y-7263168D01*
X36370000Y-7263168D02*
X36370000Y-4790000D01*
%TO.N,GPIO_9_MISO_SPI*%
X30214640Y-8338528D02*
X33763168Y-4790000D01*
X33763168Y-4790000D02*
X33830000Y-4790000D01*
D42*
%TO.N,GPIO_21_DOUT_PCM*%
X-7896000Y-20264000D02*
X-8692000Y-20264000D01*
X-8692000Y-20264000D02*
X-9144000Y-19812000D01*
X-8636000Y-43749000D02*
X-8636000Y-42672000D01*
X-8039000Y-44346000D02*
X-8636000Y-43749000D01*
D43*
%TO.N,GPIO_18_CLK_PCM*%
X-6368000Y-41918000D02*
X-7354000Y-42904000D01*
X-6368000Y-16678000D02*
X-7211000Y-17521000D01*
X-7354000Y-42904000D02*
X-7354000Y-43661000D01*
X-6368000Y-41032000D02*
X-6368000Y-41918000D01*
X-7211000Y-17521000D02*
X-7211000Y-18288000D01*
D45*
%TO.N,Net-(J3-Pin_2)*%
X45406649Y-8636000D02*
X45617353Y-8846704D01*
X43688000Y-8636000D02*
X45406649Y-8636000D01*
D43*
%TO.N,Net-(J7-Pad01)*%
X15240000Y-44246000D02*
X15240000Y-46736000D01*
%TO.N,Net-(J8-Pad01)*%
X17780000Y-44196000D02*
X17780000Y-46736000D01*
%TO.N,Net-(J9-Pad01)*%
X20320000Y-44216000D02*
X20320000Y-46736000D01*
%TO.N,Net-(J10-Pad01)*%
X22860000Y-44196000D02*
X22860000Y-46736000D01*
%TO.N,Net-(J11-Pad01)*%
X25400000Y-44196000D02*
X25400000Y-46736000D01*
%TO.N,Net-(J12-Pad01)*%
X27940000Y-44196000D02*
X27940000Y-46736000D01*
%TO.N,Net-(J13-Pad01)*%
X30480000Y-44196000D02*
X30480000Y-46736000D01*
%TO.N,Net-(J14-Pad01)*%
X33020000Y-44196000D02*
X33020000Y-46736000D01*
%TO.N,Net-(J15-Pad01)*%
X35560000Y-44196000D02*
X35560000Y-46736000D01*
%TO.N,/Driver Servos/J0*%
X41279200Y-42295200D02*
X38621000Y-39637000D01*
X16104000Y-43230000D02*
X19697000Y-39637000D01*
X41279200Y-42295200D02*
X41279200Y-44852200D01*
X41435800Y-45008800D02*
X42341800Y-45008800D01*
X16104000Y-44246000D02*
X16104000Y-43230000D01*
X38621000Y-39637000D02*
X19697000Y-39637000D01*
X41279200Y-44852200D02*
X41435800Y-45008800D01*
X42341800Y-45008800D02*
X42341800Y-44852200D01*
%TO.N,/Driver Servos/J1*%
X40828200Y-45039010D02*
X41432990Y-45643800D01*
X18644000Y-44196000D02*
X18644000Y-43180000D01*
X38543095Y-40196905D02*
X40828200Y-42482010D01*
X18644000Y-43180000D02*
X21627095Y-40196905D01*
X40828200Y-42482010D02*
X40828200Y-45039010D01*
X41432990Y-45643800D02*
X42341800Y-45643800D01*
X21627095Y-40196905D02*
X38543095Y-40196905D01*
%TO.N,/Driver Servos/J2*%
X41455580Y-46304200D02*
X40377200Y-45225820D01*
X42341800Y-46304200D02*
X41455580Y-46304200D01*
X21184000Y-44216000D02*
X21184000Y-43200000D01*
X38356285Y-40647905D02*
X23736095Y-40647905D01*
X40377200Y-45225820D02*
X40377200Y-42668820D01*
X21184000Y-43200000D02*
X23736095Y-40647905D01*
X40377200Y-42668820D02*
X38356285Y-40647905D01*
%TO.N,/Driver Servos/J3*%
X39926200Y-45412630D02*
X41452770Y-46939200D01*
X25805095Y-41098905D02*
X38169475Y-41098905D01*
X39926200Y-42855630D02*
X39926200Y-45412630D01*
X38169475Y-41098905D02*
X39926200Y-42855630D01*
X23724000Y-43180000D02*
X25805095Y-41098905D01*
X23724000Y-44196000D02*
X23724000Y-43180000D01*
X41452770Y-46939200D02*
X42341800Y-46939200D01*
%TO.N,/Driver Servos/J4*%
X26264000Y-44196000D02*
X26264000Y-43180000D01*
X42341800Y-47599600D02*
X41475360Y-47599600D01*
X26264000Y-43180000D02*
X27788000Y-41656000D01*
X38088760Y-41656000D02*
X27788000Y-41656000D01*
X39475200Y-43042440D02*
X38088760Y-41656000D01*
X41475360Y-47599600D02*
X39475200Y-45599440D01*
X39475200Y-45599440D02*
X39475200Y-43042440D01*
%TO.N,/Driver Servos/J5*%
X37958950Y-42164000D02*
X39024200Y-43229250D01*
X39024200Y-45786250D02*
X41497950Y-48260000D01*
X28804000Y-44196000D02*
X28804000Y-43180000D01*
X39024200Y-43229250D02*
X39024200Y-45786250D01*
X28804000Y-43180000D02*
X29820000Y-42164000D01*
X41497950Y-48260000D02*
X42341800Y-48260000D01*
X29820000Y-42164000D02*
X37958950Y-42164000D01*
%TO.N,/Driver Servos/J6*%
X38573200Y-46113000D02*
X41355200Y-48895000D01*
X31344000Y-44196000D02*
X32925000Y-42615000D01*
X37772140Y-42615000D02*
X38573200Y-43416060D01*
X38573200Y-43416060D02*
X38573200Y-46113000D01*
X32925000Y-42615000D02*
X37772140Y-42615000D01*
X41355200Y-48895000D02*
X42341800Y-48895000D01*
%TO.N,/Driver Servos/J7*%
X42341800Y-49555400D02*
X41377790Y-49555400D01*
X38122200Y-43602870D02*
X37585330Y-43066000D01*
X38122200Y-46299810D02*
X38122200Y-43602870D01*
X37585330Y-43066000D02*
X35014000Y-43066000D01*
X35014000Y-43066000D02*
X33884000Y-44196000D01*
X41377790Y-49555400D02*
X38122200Y-46299810D01*
%TO.N,/Driver Servos/J8*%
X47680000Y-50694200D02*
X48183800Y-50190400D01*
X36424000Y-44196000D02*
X37592000Y-45364000D01*
X41279200Y-50694200D02*
X47680000Y-50694200D01*
X37592000Y-45364000D02*
X37592000Y-46736000D01*
X41279200Y-50423200D02*
X41279200Y-50694200D01*
X37592000Y-46736000D02*
X41279200Y-50423200D01*
%TO.N,Net-(U1-~OE)*%
X48183800Y-45008800D02*
X49072800Y-45008800D01*
X50800000Y-44931500D02*
X48261100Y-44931500D01*
X48261100Y-44931500D02*
X48183800Y-45008800D01*
%TO.N,Net-(U2-SD_MODE)*%
X-9211000Y-21679000D02*
X-9126000Y-21764000D01*
X-9126000Y-21764000D02*
X-7896000Y-21764000D01*
%TO.N,Net-(U3-SD_MODE)*%
X-8074000Y-45811000D02*
X-8039000Y-45846000D01*
X-9319000Y-45811000D02*
X-8074000Y-45811000D01*
%TO.N,Net-(U6-FB)*%
X71000000Y-26885000D02*
X71065000Y-26820000D01*
X71186532Y-36348310D02*
X71186532Y-35067310D01*
X73272310Y-34947310D02*
X74000000Y-35675000D01*
X71066532Y-34947310D02*
X73272310Y-34947310D01*
X71186532Y-35067310D02*
X71066532Y-34947310D01*
%TO.N,/Amplificadores/OUT_N2*%
X-2219000Y-43696000D02*
X-2219000Y-44733000D01*
X-2219000Y-44733000D02*
X-1756000Y-45196000D01*
X-1756000Y-45196000D02*
X-61000Y-45196000D01*
X-61000Y-45196000D02*
X189000Y-45446000D01*
%TO.N,/Amplificadores/OUT_P2*%
X-61000Y-46696000D02*
X189000Y-46446000D01*
X-1756000Y-46696000D02*
X-1756000Y-47733000D01*
X-1756000Y-46696000D02*
X-61000Y-46696000D01*
X-1756000Y-47733000D02*
X-2219000Y-48196000D01*
D44*
%TO.N,Net-(C17-Pad1)*%
X74168000Y-21336000D02*
X74168000Y-30988000D01*
X75184000Y-32004000D02*
X77724000Y-32004000D01*
X74168000Y-30988000D02*
X75184000Y-32004000D01*
D43*
X78500000Y-33602000D02*
X78574000Y-33528000D01*
D44*
X67564000Y-20614000D02*
X73446000Y-20614000D01*
D43*
X78500000Y-35675000D02*
X78500000Y-33602000D01*
D44*
X78574000Y-32854000D02*
X78574000Y-33528000D01*
X73446000Y-20614000D02*
X74168000Y-21336000D01*
X77724000Y-32004000D02*
X78574000Y-32854000D01*
%TD*%
%TA.AperFunction,Conductor*%
%TO.N,GND*%
G36*
X81773648Y-1030352D02*
G01*
X81788000Y-1065000D01*
X81788000Y-29923000D01*
X81773648Y-29957648D01*
X81739000Y-29972000D01*
X80109000Y-29972000D01*
X80074352Y-29957648D01*
X80060000Y-29923000D01*
X80060000Y-29550369D01*
X80059999Y-29550355D01*
X80057100Y-29513510D01*
X80057100Y-29513508D01*
X80011280Y-29355798D01*
X79927686Y-29214448D01*
X79927682Y-29214443D01*
X79865663Y-29152424D01*
X79851311Y-29117776D01*
X79865663Y-29083128D01*
X79967029Y-28981761D01*
X80051357Y-28842265D01*
X80051358Y-28842262D01*
X80099853Y-28686638D01*
X80106000Y-28618997D01*
X80106000Y-27626000D01*
X79171000Y-27626000D01*
X79171000Y-28911000D01*
X79178071Y-28918071D01*
X79195648Y-28925352D01*
X79210000Y-28960000D01*
X79210000Y-29972000D01*
X78710000Y-29972000D01*
X78710000Y-29291000D01*
X78702928Y-29283928D01*
X78685352Y-29276648D01*
X78671000Y-29242000D01*
X78671000Y-27626000D01*
X77736000Y-27626000D01*
X77736000Y-28618997D01*
X77742146Y-28686638D01*
X77790641Y-28842262D01*
X77790642Y-28842265D01*
X77874970Y-28981761D01*
X77990236Y-29097027D01*
X78011187Y-29109692D01*
X78033414Y-29139899D01*
X78027772Y-29176975D01*
X78020487Y-29186274D01*
X77992315Y-29214446D01*
X77908719Y-29355798D01*
X77862899Y-29513508D01*
X77862899Y-29513510D01*
X77860000Y-29550355D01*
X77860000Y-29923000D01*
X77845648Y-29957648D01*
X77811000Y-29972000D01*
X76889500Y-29972000D01*
X76854852Y-29957648D01*
X76840500Y-29923000D01*
X76840500Y-29582738D01*
X76837606Y-29562884D01*
X76830573Y-29514607D01*
X76779198Y-29409517D01*
X76696483Y-29326802D01*
X76643938Y-29301114D01*
X76591396Y-29275428D01*
X76591394Y-29275427D01*
X76523262Y-29265500D01*
X76523260Y-29265500D01*
X75556740Y-29265500D01*
X75556738Y-29265500D01*
X75488605Y-29275427D01*
X75488603Y-29275428D01*
X75383519Y-29326801D01*
X75383515Y-29326803D01*
X75300803Y-29409515D01*
X75300801Y-29409519D01*
X75249428Y-29514603D01*
X75249427Y-29514605D01*
X75239500Y-29582738D01*
X75239500Y-29923000D01*
X75225148Y-29957648D01*
X75190500Y-29972000D01*
X74917500Y-29972000D01*
X74882852Y-29957648D01*
X74868500Y-29923000D01*
X74868500Y-21267007D01*
X74868499Y-21267001D01*
X74841582Y-21131681D01*
X74841579Y-21131670D01*
X74788776Y-21004192D01*
X74788775Y-21004189D01*
X74749768Y-20945811D01*
X74712114Y-20889457D01*
X73892543Y-20069886D01*
X73777811Y-19993225D01*
X73777808Y-19993223D01*
X73777807Y-19993223D01*
X73650329Y-19940420D01*
X73650320Y-19940418D01*
X73514997Y-19913500D01*
X73514994Y-19913500D01*
X73514993Y-19913500D01*
X70213500Y-19913500D01*
X70178852Y-19899148D01*
X70164500Y-19864500D01*
X70164500Y-18694255D01*
X70164500Y-18694252D01*
X70152867Y-18635769D01*
X70123188Y-18591352D01*
X70108552Y-18569447D01*
X70068795Y-18542882D01*
X70042231Y-18525133D01*
X69983748Y-18513500D01*
X69846893Y-18513500D01*
X69812245Y-18499148D01*
X69797893Y-18464500D01*
X69797901Y-18463640D01*
X69798984Y-18401923D01*
X69872684Y-14201002D01*
X75055500Y-14201002D01*
X75055500Y-14338997D01*
X75082418Y-14474320D01*
X75082420Y-14474329D01*
X75119571Y-14564019D01*
X75135225Y-14601811D01*
X75186561Y-14678641D01*
X75211885Y-14716542D01*
X75309460Y-14814117D01*
X75356722Y-14845695D01*
X75377558Y-14876877D01*
X75378500Y-14886437D01*
X75378500Y-15334164D01*
X75364148Y-15368812D01*
X75351026Y-15378183D01*
X75346250Y-15380518D01*
X75346244Y-15380522D01*
X75258520Y-15468246D01*
X75258518Y-15468250D01*
X75204028Y-15579709D01*
X75204028Y-15579710D01*
X75193500Y-15651969D01*
X75193500Y-18100030D01*
X75193501Y-18100031D01*
X75204027Y-18172288D01*
X75204027Y-18172290D01*
X75258517Y-18283749D01*
X75258518Y-18283751D01*
X75258519Y-18283752D01*
X75346248Y-18371481D01*
X75351019Y-18373813D01*
X75375845Y-18401923D01*
X75378500Y-18417835D01*
X75378500Y-18834164D01*
X75364148Y-18868812D01*
X75351026Y-18878183D01*
X75346250Y-18880518D01*
X75346244Y-18880522D01*
X75258520Y-18968246D01*
X75258518Y-18968250D01*
X75204028Y-19079709D01*
X75204028Y-19079710D01*
X75193500Y-19151969D01*
X75193500Y-21600030D01*
X75193501Y-21600031D01*
X75204027Y-21672288D01*
X75204027Y-21672290D01*
X75258517Y-21783749D01*
X75258518Y-21783751D01*
X75258519Y-21783752D01*
X75346248Y-21871481D01*
X75351019Y-21873813D01*
X75375845Y-21901923D01*
X75378500Y-21917835D01*
X75378500Y-22334164D01*
X75364148Y-22368812D01*
X75351026Y-22378183D01*
X75346250Y-22380518D01*
X75346244Y-22380522D01*
X75258520Y-22468246D01*
X75258518Y-22468250D01*
X75204028Y-22579709D01*
X75204028Y-22579710D01*
X75193500Y-22651969D01*
X75193500Y-25100030D01*
X75193501Y-25100031D01*
X75204027Y-25172288D01*
X75204027Y-25172290D01*
X75258517Y-25283749D01*
X75258518Y-25283751D01*
X75258519Y-25283752D01*
X75346248Y-25371481D01*
X75351019Y-25373813D01*
X75375845Y-25401923D01*
X75378500Y-25417835D01*
X75378500Y-25834164D01*
X75364148Y-25868812D01*
X75351026Y-25878183D01*
X75346250Y-25880518D01*
X75346244Y-25880522D01*
X75258520Y-25968246D01*
X75258518Y-25968250D01*
X75204028Y-26079709D01*
X75204028Y-26079710D01*
X75193500Y-26151969D01*
X75193500Y-28600030D01*
X75193501Y-28600031D01*
X75204027Y-28672288D01*
X75204027Y-28672290D01*
X75258517Y-28783749D01*
X75258518Y-28783751D01*
X75258519Y-28783752D01*
X75346248Y-28871481D01*
X75457710Y-28925972D01*
X75529971Y-28936500D01*
X76628028Y-28936499D01*
X76628030Y-28936499D01*
X76628030Y-28936498D01*
X76700290Y-28925972D01*
X76811752Y-28871481D01*
X76899481Y-28783752D01*
X76953972Y-28672290D01*
X76964500Y-28600029D01*
X76964499Y-26151972D01*
X76953972Y-26079710D01*
X76946957Y-26065361D01*
X76899482Y-25968250D01*
X76899481Y-25968249D01*
X76899481Y-25968248D01*
X76811752Y-25880519D01*
X76806974Y-25878183D01*
X76782153Y-25850069D01*
X76779500Y-25834164D01*
X76779500Y-25417835D01*
X76793852Y-25383187D01*
X76806979Y-25373814D01*
X76811752Y-25371481D01*
X76899481Y-25283752D01*
X76953972Y-25172290D01*
X76961736Y-25118997D01*
X77736000Y-25118997D01*
X77742146Y-25186638D01*
X77790641Y-25342262D01*
X77790642Y-25342265D01*
X77874970Y-25481761D01*
X77984561Y-25591352D01*
X77998913Y-25626000D01*
X77984561Y-25660648D01*
X77874970Y-25770238D01*
X77790642Y-25909734D01*
X77790641Y-25909737D01*
X77742146Y-26065361D01*
X77736000Y-26133002D01*
X77736000Y-27126000D01*
X78671000Y-27126000D01*
X79171000Y-27126000D01*
X80106000Y-27126000D01*
X80106000Y-26133002D01*
X80099853Y-26065361D01*
X80051358Y-25909737D01*
X80051357Y-25909734D01*
X79967029Y-25770238D01*
X79857439Y-25660648D01*
X79843087Y-25626000D01*
X79857439Y-25591352D01*
X79967029Y-25481761D01*
X80051357Y-25342265D01*
X80051358Y-25342262D01*
X80099853Y-25186638D01*
X80106000Y-25118997D01*
X80106000Y-24126000D01*
X79171000Y-24126000D01*
X79171000Y-27126000D01*
X78671000Y-27126000D01*
X78671000Y-24126000D01*
X77736000Y-24126000D01*
X77736000Y-25118997D01*
X76961736Y-25118997D01*
X76964500Y-25100029D01*
X76964499Y-23626000D01*
X76964499Y-22651969D01*
X76964498Y-22651968D01*
X76953972Y-22579711D01*
X76953972Y-22579709D01*
X76899482Y-22468250D01*
X76899481Y-22468249D01*
X76899481Y-22468248D01*
X76811752Y-22380519D01*
X76806974Y-22378183D01*
X76782153Y-22350069D01*
X76779500Y-22334164D01*
X76779500Y-21917835D01*
X76793852Y-21883187D01*
X76806979Y-21873814D01*
X76811752Y-21871481D01*
X76899481Y-21783752D01*
X76953972Y-21672290D01*
X76961736Y-21618997D01*
X77736000Y-21618997D01*
X77742146Y-21686638D01*
X77790641Y-21842262D01*
X77790642Y-21842265D01*
X77874970Y-21981761D01*
X77984561Y-22091352D01*
X77998913Y-22126000D01*
X77984561Y-22160648D01*
X77874970Y-22270238D01*
X77790642Y-22409734D01*
X77790641Y-22409737D01*
X77742146Y-22565361D01*
X77736000Y-22633002D01*
X77736000Y-23626000D01*
X78671000Y-23626000D01*
X79171000Y-23626000D01*
X80106000Y-23626000D01*
X80106000Y-22633002D01*
X80099853Y-22565361D01*
X80051358Y-22409737D01*
X80051357Y-22409734D01*
X79967029Y-22270238D01*
X79857439Y-22160648D01*
X79843087Y-22126000D01*
X79857439Y-22091352D01*
X79967029Y-21981761D01*
X80051357Y-21842265D01*
X80051358Y-21842262D01*
X80099853Y-21686638D01*
X80106000Y-21618997D01*
X80106000Y-20626000D01*
X79171000Y-20626000D01*
X79171000Y-23626000D01*
X78671000Y-23626000D01*
X78671000Y-20626000D01*
X77736000Y-20626000D01*
X77736000Y-21618997D01*
X76961736Y-21618997D01*
X76964500Y-21600029D01*
X76964499Y-20126000D01*
X76964499Y-19151969D01*
X76964498Y-19151968D01*
X76953972Y-19079711D01*
X76953972Y-19079709D01*
X76899482Y-18968250D01*
X76899481Y-18968249D01*
X76899481Y-18968248D01*
X76811752Y-18880519D01*
X76806974Y-18878183D01*
X76782153Y-18850069D01*
X76779500Y-18834164D01*
X76779500Y-18417835D01*
X76793852Y-18383187D01*
X76806979Y-18373814D01*
X76811752Y-18371481D01*
X76899481Y-18283752D01*
X76953972Y-18172290D01*
X76961736Y-18118997D01*
X77736000Y-18118997D01*
X77742146Y-18186638D01*
X77790641Y-18342262D01*
X77790642Y-18342265D01*
X77874970Y-18481761D01*
X77984561Y-18591352D01*
X77998913Y-18626000D01*
X77984561Y-18660648D01*
X77874970Y-18770238D01*
X77790642Y-18909734D01*
X77790641Y-18909737D01*
X77742146Y-19065361D01*
X77736000Y-19133002D01*
X77736000Y-20126000D01*
X78671000Y-20126000D01*
X79171000Y-20126000D01*
X80106000Y-20126000D01*
X80106000Y-19133002D01*
X80099853Y-19065361D01*
X80051358Y-18909737D01*
X80051357Y-18909734D01*
X79967029Y-18770238D01*
X79857439Y-18660648D01*
X79843087Y-18626000D01*
X79857439Y-18591352D01*
X79967029Y-18481761D01*
X80051357Y-18342265D01*
X80051358Y-18342262D01*
X80099853Y-18186638D01*
X80106000Y-18118997D01*
X80106000Y-17126000D01*
X79171000Y-17126000D01*
X79171000Y-20126000D01*
X78671000Y-20126000D01*
X78671000Y-17126000D01*
X77736000Y-17126000D01*
X77736000Y-18118997D01*
X76961736Y-18118997D01*
X76964500Y-18100029D01*
X76964499Y-16626000D01*
X76964499Y-15651969D01*
X76964498Y-15651965D01*
X76962603Y-15638950D01*
X76961736Y-15633002D01*
X77736000Y-15633002D01*
X77736000Y-16626000D01*
X78671000Y-16626000D01*
X79171000Y-16626000D01*
X80106000Y-16626000D01*
X80106000Y-15633002D01*
X80099853Y-15565361D01*
X80051358Y-15409737D01*
X80051357Y-15409734D01*
X79967029Y-15270238D01*
X79851761Y-15154970D01*
X79712265Y-15070642D01*
X79712262Y-15070641D01*
X79556638Y-15022146D01*
X79488997Y-15016000D01*
X79171000Y-15016000D01*
X79171000Y-16626000D01*
X78671000Y-16626000D01*
X78671000Y-15016000D01*
X78353003Y-15016000D01*
X78285361Y-15022146D01*
X78129737Y-15070641D01*
X78129734Y-15070642D01*
X77990238Y-15154970D01*
X77874970Y-15270238D01*
X77790642Y-15409734D01*
X77790641Y-15409737D01*
X77742146Y-15565361D01*
X77736000Y-15633002D01*
X76961736Y-15633002D01*
X76953972Y-15579710D01*
X76953972Y-15579709D01*
X76899482Y-15468250D01*
X76899481Y-15468249D01*
X76899481Y-15468248D01*
X76811752Y-15380519D01*
X76806974Y-15378183D01*
X76782153Y-15350069D01*
X76779500Y-15334164D01*
X76779500Y-14662254D01*
X76793852Y-14627606D01*
X76828500Y-14613254D01*
X76863148Y-14627606D01*
X76867726Y-14632889D01*
X76942811Y-14733188D01*
X77057908Y-14819351D01*
X77192626Y-14869598D01*
X77252166Y-14876000D01*
X77600000Y-14876000D01*
X78100000Y-14876000D01*
X78447834Y-14876000D01*
X78507372Y-14869598D01*
X78507373Y-14869598D01*
X78642091Y-14819351D01*
X78757188Y-14733188D01*
X78843351Y-14618091D01*
X78893598Y-14483373D01*
X78893598Y-14483372D01*
X78900000Y-14423834D01*
X78900000Y-14126000D01*
X78100000Y-14126000D01*
X78100000Y-14876000D01*
X77600000Y-14876000D01*
X77600000Y-13626000D01*
X78100000Y-13626000D01*
X78900000Y-13626000D01*
X78900000Y-13328165D01*
X78893598Y-13268627D01*
X78893598Y-13268626D01*
X78843351Y-13133908D01*
X78757188Y-13018811D01*
X78642091Y-12932648D01*
X78507373Y-12882401D01*
X78447834Y-12876000D01*
X78100000Y-12876000D01*
X78100000Y-13626000D01*
X77600000Y-13626000D01*
X77600000Y-12876000D01*
X77252166Y-12876000D01*
X77192627Y-12882401D01*
X77192626Y-12882401D01*
X77057908Y-12932648D01*
X76942811Y-13018811D01*
X76856645Y-13133912D01*
X76846704Y-13160566D01*
X76821149Y-13188014D01*
X76783670Y-13189352D01*
X76782040Y-13188711D01*
X76778232Y-13187133D01*
X76763610Y-13184224D01*
X76719748Y-13175500D01*
X75580252Y-13175500D01*
X75521769Y-13187133D01*
X75455447Y-13231447D01*
X75430605Y-13268627D01*
X75411133Y-13297769D01*
X75399500Y-13356252D01*
X75399500Y-13356255D01*
X75399500Y-13615547D01*
X75385148Y-13650195D01*
X75211885Y-13823457D01*
X75135223Y-13938192D01*
X75082420Y-14065670D01*
X75082418Y-14065679D01*
X75055500Y-14201002D01*
X69872684Y-14201002D01*
X69896164Y-12862639D01*
X69911121Y-12828249D01*
X69945156Y-12814500D01*
X69983745Y-12814500D01*
X69983748Y-12814500D01*
X70042231Y-12802867D01*
X70108552Y-12758552D01*
X70152867Y-12692231D01*
X70164500Y-12633748D01*
X70164500Y-8794252D01*
X70152867Y-8735769D01*
X70126301Y-8696012D01*
X70108552Y-8669447D01*
X70058923Y-8636286D01*
X70042231Y-8625133D01*
X70042230Y-8625132D01*
X70042229Y-8625132D01*
X70010906Y-8618901D01*
X69979724Y-8598065D01*
X69971474Y-8569983D01*
X70103155Y-1064140D01*
X70118112Y-1029749D01*
X70152147Y-1016000D01*
X81739000Y-1016000D01*
X81773648Y-1030352D01*
G37*
%TD.AperFunction*%
%TD*%
%TA.AperFunction,NonConductor*%
G36*
X73170195Y-21328852D02*
G01*
X73453148Y-21611805D01*
X73467500Y-21646453D01*
X73467500Y-29923000D01*
X73453148Y-29957648D01*
X73418500Y-29972000D01*
X69645867Y-29972000D01*
X69611219Y-29957648D01*
X69596867Y-29923000D01*
X69596875Y-29922140D01*
X69644447Y-27210499D01*
X69650909Y-26842143D01*
X70674500Y-26842143D01*
X70674500Y-26927856D01*
X70696681Y-27010637D01*
X70696682Y-27010640D01*
X70739535Y-27084862D01*
X70800138Y-27145465D01*
X70874361Y-27188318D01*
X70939653Y-27205812D01*
X70957143Y-27210499D01*
X70957144Y-27210500D01*
X70957147Y-27210500D01*
X71042856Y-27210500D01*
X71042856Y-27210499D01*
X71125639Y-27188318D01*
X71199862Y-27145465D01*
X71325465Y-27019862D01*
X71368318Y-26945639D01*
X71390499Y-26862856D01*
X71390500Y-26862856D01*
X71390500Y-26777144D01*
X71390499Y-26777143D01*
X71368318Y-26694362D01*
X71368317Y-26694359D01*
X71325464Y-26620137D01*
X71264862Y-26559535D01*
X71190640Y-26516682D01*
X71190637Y-26516681D01*
X71107856Y-26494500D01*
X71107853Y-26494500D01*
X71022147Y-26494500D01*
X71022144Y-26494500D01*
X70939362Y-26516681D01*
X70939359Y-26516682D01*
X70865137Y-26559535D01*
X70865137Y-26559536D01*
X70739536Y-26685137D01*
X70739535Y-26685137D01*
X70696682Y-26759359D01*
X70696681Y-26759362D01*
X70674500Y-26842143D01*
X69650909Y-26842143D01*
X69722480Y-22762640D01*
X69737437Y-22728249D01*
X69771472Y-22714500D01*
X69983745Y-22714500D01*
X69983748Y-22714500D01*
X70042231Y-22702867D01*
X70108552Y-22658552D01*
X70152867Y-22592231D01*
X70164500Y-22533748D01*
X70164500Y-21363500D01*
X70178852Y-21328852D01*
X70213500Y-21314500D01*
X73135547Y-21314500D01*
X73170195Y-21328852D01*
G37*
%TD.AperFunction*%
M02*
